<svg xmlns="http://www.w3.org/2000/svg" width="3256" height="1240" viewBox="0 0 3256 1240"><path d="M452.5 54.7q-3.3 0-7.2 1c-22.4 6.5-24.2 38.5-22.4 57.6.9 9.2 2.1 18 5.1 26.7 2 5.8 5.7 11.3 6.5 17.3 2.1 16.8.2 35 .2 52v253.4c0 25.2-1.4 50.8 0 76 .6 10.3 7.7 18.6 8 29.3 2.3 95.1.3 190.2 2.7 285.3 2 87 3.7 173.8 4 260.8q.3 0 .8.7h.5v-.1h1.3v.3l.8-.3q.3 0 .5.3v-37.7c0-27.1 1.4-54.2 1.4-81.3 0-23.4-1.5-47.3 0-70.7 2-28.8.6-57.7 1.3-86.6 1.8-71.6 1.8-143 2.7-214.7.2-20.4-.6-42.4 1.4-62.7.7-6.6 5-11.8 5.2-18.6 3-78.6 0-157.4 0-236V212c0-16.3-1-33 .2-49.3.6-8.4 5.3-15 7.8-22.7a117 117 0 0 0 5.4-34.7c0-16.7-5-50.3-26.2-50.6m-1.8 15.5c6.5-.1 10 10.3 11.3 15.1 4 14.5 2.5 31-1.2 45.4-1.2 4.8-3.2 13.6-9 15-7.6 1.8-11-11.2-12.3-16.4a90 90 0 0 1 .2-45.3c1.4-4.7 4.2-12.4 9.7-13.7zm-28 160.5c-12.6 3-26 3.6-38.7 5.9a376 376 0 0 0-62.7 16.8A385 385 0 0 0 105.7 452a390 390 0 0 0-35 186.7 386 386 0 0 0 125.3 257 397 397 0 0 0 118.7 72.9c37.6 15 79.2 24.7 120 24.7l-1.4-142.6c-7.6-1.4-14-5.5-20-10.3-35-27.8-25.7-90 18.7-103L430.7 616c-24.4.2-50 10.6-70.7 23a183 183 0 0 0-84.5 198.3 183 183 0 0 0 89.8 118 226 226 0 0 0 45.4 16.7v1.3c-23.6-5.6-47.5-8.1-70.7-15.6-52-16.9-98.8-46-138.7-83.2C132.1 810 92.2 716.6 88.1 622.7 84.2 535 119.2 441 177.6 376c50.6-56.4 113.8-97.7 187.7-116.2 13.7-3.4 27.5-5.6 41.4-8 4-.6 13.2.2 16-3.3 3.2-4 1.3-13.3 0-17.8m54.6 1.3v18.7c19.1 1.5 37.8 8.4 54.7 17 103.1 52.3 129.5 194.2 55.6 281.6a178 178 0 0 1-73 53.3q-14.9 5.6-30.6 8.6c-3.8.6-10.5-.2-12.5 3.9-3.7 7.4-.8 22-.8 30.2 0 21-1.4 41.8-1.4 62.7 0 7.4-2.3 19.5.8 26.3 2.6 5.6 13.2 8.9 17.9 12.8a63 63 0 0 1 20.7 31.6c7.7 28.7-9.3 66.4-40.7 72l-1.3 142.6A338 338 0 0 0 604 961.7a392 392 0 0 0 126.5-91 382 382 0 0 0 97-201.4 390 390 0 0 0-108.8-328A371 371 0 0 0 608 265.5c-40.5-17.9-85.9-33.4-130.7-33.5m626 118q-8.3 0-16.6.7c-22.9 2-45.6 9-65.4 20.8-23 13.7-39.5 33.8-53 56.5a191 191 0 0 0-24.3 93.3c-.8 42 7 85.3 32.2 120a154 154 0 0 0 51.8 46.3c10.8 5.7 24.7 7.7 34.7 14.6 11.2 7.7 20.1 19.2 30.6 27.8a262 262 0 0 0 82.7 46.6 195 195 0 0 0 61.3 11.4c5.4 0 16 2 20.6-1.6 3.3-2.6 2.1-9.3 2.1-13-49 0-92-32.9-117.3-73.4 131.6-30.2 151.2-221 66.5-308-27.8-28.5-66.9-41.7-105.9-42m1801 2.6c-31.3-.6-63.3 13.4-77.6 42-9.7 19.3-9.4 40.5-9.4 61.4H2780v24h25.3l9.9 2.1 2.1 15.2V696h48V480h68v-24h-68c0-22.6-1.1-45.4 11.3-65.3 18-29 55-13.6 71.4 8 4.4-2.8 12.5-6.8 14.1-12.2 1.1-3.7-2-7.6-4-10.5a49 49 0 0 0-23.4-18c-9.6-3.4-20-5.2-30.4-5.4M1745.5 359c-12.2-.5-25 .9-34.8.9H1540v12c6.3 0 12.6.4 18.7 2.1 29.8 8.7 22.6 50.1 22.6 73.9v248h33.4l13.8-1.4 2.2-10.6V578.7l-1.4-38.7 32-1.3h77.4l9.2-2.1.1-20.6h-117.3v-86.7l-1.4-45.3c12.3-3 26.1-1.3 38.7-1.3 25 0 56-5.1 78.7 7a47 47 0 0 1 22.7 30.3c1.4 5.2.6 15 4 19.2 3 3.7 9.6 1.9 13.3.8-1-15.1.1-30.2-1.3-45.3-.8-8.9-2-18.3-8.5-25-7.7-7.7-19.3-10.1-31.4-10.6m631.8.9v12a57 57 0 0 1 17.4 2.2c30 9.2 22.6 49.5 22.6 73.8v248h204l26.7-1.3v-21.4h-165.3c-4.6 0-10.4.7-13.7-3.2-4.2-4.9-2.3-14.8-2.3-20.8V430.7c0-20.6 3.2-49-14.7-63.5-8.9-7.1-19.9-7.2-30.7-7.2Zm330.3 6.6a30 30 0 0 0-6.3.8c-36.6 8.4-19.9 66.4 16 57 33.2-8.7 20.6-58.2-9.7-57.8m-1364 0q-3 0-6.3.8c-36.7 8.3-21.5 65.8 14.7 57.2 32.7-7.7 22-58.3-8.4-58m-245.4 5c43.7-1.5 76.2 28.5 92.7 68.4a242 242 0 0 1 1.1 173.3c-14 35.2-41 64.2-80 69-46.9 5.7-81.5-25.6-98.9-66.3-22.7-53.4-22-122.3-.6-176 13.4-33.3 39.7-62.8 76.8-67.6a95 95 0 0 1 9-.8m-621 5.7v108a44 44 0 0 0 19.6-14.6c24.6-28.8 16.1-78-19.6-93.4m-53.3 1.4c-11 2.6-19.2 12-24.7 21.3-16.6 28-8 72.8 24.7 85.3Zm1486.8 71.5a117 117 0 0 0-16.1 1 110 110 0 0 0-65.3 31.5c-45.6 47.2-47.3 137-2.3 185.2 27.6 29.6 67.6 37.2 106.2 31.7 88.5-12.6 112.2-131.3 71.4-198.3-20-32.8-56.4-51-94-51.1m1155.6 0c-15.5-.5-31.1 2.2-45 7.7-75.4 30.5-89 147.1-40.7 206.1a105 105 0 0 0 68.7 36.8c31.8 4.5 66.3-5 89.4-27.5 5.4-5.3 22.4-19 17.7-28-1.9-3.5-6.6-8-11-6.4-6.6 2.5-12.2 13.5-17.4 18.3a80 80 0 0 1-38.7 20.1 56 56 0 0 1-20 .4c-46-6.6-65.2-53-65.3-95h145.3c3.3 0 8.4.7 10.7-2.2s1.5-8.7 2-12.3c1.5-13.3 0-28.5-2.9-41.5a100 100 0 0 0-23.7-47.8 98 98 0 0 0-69-28.7m-882.6.5c-13 .4-26.7 5.4-37.1 12.4-4.9 3.3-12.6 14.2-18.6 14.2-3.7 0-6-5.4-8-8-3.8-5-8.6-9-14.8-10.9-19.5-6-43.8-2.4-64-2.4 0 3.3-.8 8.4 1.4 11.2 3.5 4.4 16 2.4 21.3 4.8 8.8 3.9 14 12.1 15.9 21.3 4.8 25.2 2.8 51.9 2.8 77.4V696h48V526.7c0-5.7-1-12.4 2.1-17.4a58 58 0 0 1 63.2-22.6q7.2 2.2 13.3 6.3c2.8 2 5.8 5.2 9.4 5.6 5.5.7 19.3-11.8 20-17.3.5-5-5-10-8-13.3a62 62 0 0 0-41.4-17.1zM1284 456c0 3.3-.8 8.4 1.4 11.2 2.5 3.2 8.4 2 12 2.3 6 .5 12.5 2.7 17 7 10.6 10 9.6 27.5 9.6 40.8V664c0 7.9-2.7 21.8.8 29 1.8 3.5 6.5 3 9.9 3h26.6c3.2 0 8.4.8 10.6-2.1 2.9-3.6.3-11 .1-15.2-.4-12.4 0-25 0-37.4V520c0-18.7 2.5-40.1-12.1-54.5-9.4-9.3-22.2-9.5-34.6-9.5Zm1364 0c0 3.3-.8 8.4 1.4 11.2 2 2.6 6.3 2 9.3 2.2q7.6 0 14.6 3.3c8.7 4 12.6 11.6 14.4 20.6 4.4 23.1 1.6 48.6 1.6 72V696h48V529.3c0-21.1 4.6-49.3-13.4-64.9-9.5-8.2-21.3-8.4-33.2-8.4Zm-737.5 17.4c25.1-.1 43.2 22 51.9 44a169 169 0 0 1-1 120c-8.5 20.3-23.6 38.7-46.7 41-29.5 3-50.7-20.7-59.6-46.4-12.4-35.8-13.5-80.7 1.5-116 9.2-21.7 24.4-39.3 48.7-42.3zm1149 .8a42 42 0 0 1 35.4 16.5c14.1 19.5 17.1 46 17.1 69.3h-108c5-26.8 5.3-54.2 26.7-74.5a43 43 0 0 1 28.8-11.3M2573.3 800v98.7l1.4 48 18.6-1.4v-132l-1.3-11.2zm220.7.8q-4 0-7 1.3c-4.6 2.3-4.7 17.5-.9 20.5 4.4 3.5 15.3 1.4 20.6 1.4v-22.7c-3.5 0-8.3-.6-12.7-.5m-174 .5 1.4 20.6 21.3 2.1v-22.7zm-115.9 1.2a79 79 0 0 0-18.8 2.2c-60.4 14.4-65 114.7-9.3 138.1 16.8 7.1 39 7.5 56 .6 6-2.5 17.5-7.8 17.7-15.4.1-4.3-3.5-8.6-5.7-12-5.9 2.3-10.4 6.5-16 9.4a49 49 0 0 1-30.7 4.6c-44.8-8-53.5-81.4-16-104 13-7.8 30.4-8 44-2 6.7 3 12 7.9 18.7 10.7 2.2-3.8 6.7-9.8 5.6-14.5-1.4-5.4-10.4-9-15-11q-14.6-6.6-30.5-6.7M1281.8 804h-3.1c-11.2 1-16.3 24.4-20 33.3q-13 32.3-27.1 64c-6.4 14.2-15.6 30-18.3 45.4 5.8-.2 15.7 1.1 20-3.5 8.7-9.3 6.2-31.8 22.7-32.3 14-.4 28.5 1.1 42.7 1.1 5.2 0 13.5-1.6 18.1 1.4 10 6.3 7.6 24 17 31 5 3.6 13.8 2.3 19.5 2.3-2.1-12-9.5-23.6-14.3-34.7-11.1-26-23.2-51.5-34.4-77.3-5.4-12.4-8-29.8-22.8-30.7m770.2 10.7c-6.4.5-17.7 1.6-19.4 9.2-1.4 6 3.6 14.3-1.4 19.3-6.2 6.2-17-2.4-17.8 10.1q-.1 2 .4 3.8c2 7.1 11.4 2.4 16.2 5.5 3.3 2.1 2.8 9.9 3.1 13.4 1.8 19.4-6.6 46.3 7.6 62.4 7.3 8.3 17.2 8.3 27.3 8.3 3.3 0 8.3.5 10.6-2.4 2.8-3.4 1.2-9.9 0-13.6-3 .5-6.1 1.3-9.3 1-21.5-1.8-17.3-28.7-17.3-43.7 0-6.9-2-17.2.8-23.6 3.3-8.2 17.8-.8 24.2-3.9 4.4-2.2 4-12.2-.2-14.4-6.2-3-18-.8-24.8-.8zM1282.7 828l18.9 42.7 9 24h-56l17.4-44zm690 14.6a51 51 0 0 0-22 4.6c-34 16.3-38.5 72.3-6.7 93.3 20.4 13.5 44.9 7 64-4.5l-5.3-16c-9.7 5.5-18.8 12.7-30.7 11.7-26.7-2.2-35.6-36.2-24.1-57a30.4 30.4 0 0 1 36.1-14.1c4.6 1.4 14.7 10 19 6.5 9.2-7.8-1-16.7-8.3-20-6.6-3-14.3-4.5-22-4.5m351.3.1a48 48 0 0 0-38 20c-16.8 24.5-10.8 68 18 80.8 20.6 9.2 43 3.5 61.3-7.5l-5.3-14.7c-16.4 6.3-32 16.7-49.3 5.4a31 31 0 0 1-12.9-18.7c-.7-3-2-7.2.4-9.9 3.8-4 14.1-2.1 19.1-2.1h50.7c0-14.3-2.3-30.1-12.6-41a41 41 0 0 0-31.4-12.3m397.3.1a45 45 0 0 0-16 3.7c-7 3.2-11.6 8.6-17.3 13.5l-1.4-12.5-17.3-2.2 1.4 101.4h18.6v-44c0-9-.4-19.8 4-28 8-15.4 30.8-21.3 41.8-5.3 4 6 3.6 13 3.6 20v36c0 4.5-2.2 16.8 2.1 19.8 3.3 2.3 12.3 1 16.5 1.5 2.7-9.2 1.4-19.9 1.4-29.4 0-24.8 6.6-65.2-25.4-73q-6-1.7-12-1.5m159.5.1c-17-.6-34.5 6.4-44 21.1-17.6 27.1-8.6 74.2 25.9 82q12.6 2.9 25.3.8a63 63 0 0 0 26.7-12.1l-5.4-13.4c-13.5 3.5-23.4 14.5-38.6 9.2-26-9-30-49-9.2-65.3a31 31 0 0 1 31.8-3.2c3.8 1.6 8.8 6.8 13 6.1 4.7-.7 7-8.4 8.4-12.1a63 63 0 0 0-26.7-12.3q-3.6-.6-7.2-.8m-1465.5.1c-14-.5-27.5 4-38 14.4-22.6 22.6-18 71.6 12 86 20.2 9.8 40.7 2.6 58.7-7.4l-5.3-16c-9.8 5.5-18.8 12.5-30.7 11.7-39.5-2.5-37-72.8 2.7-72.8 11 0 18.7 7 28 11.8 1.3-4 4.6-9.2 4-13.3-1.1-6.8-11.6-10.6-17.4-12.2a62 62 0 0 0-14-2.2m448.7 0q-6.1.3-12 2c-8.7 2.7-14.1 10-21.3 15l-1.4-12.5-17.3-2.2 2.6 57.4v44l18.7-1.4v-44c0-8.9-.9-18.4 3.3-26.6 7.7-15.5 31.4-22.3 41.8-5.3 4 6.5 2.6 14 3.1 21.3 1.4 18.5-.9 37.6 1.2 56h17.3c3-10.3 1.3-22.7 1.3-33.4 0-20.9 5.2-54.2-17.3-66a47 47 0 0 0-16-4zm-234 .7q-4.6 0-8.7 1c-9.7 2.2-15.1 9.5-22.6 15.2l-1.4-12.5-18.6-2.2 1.3 88v53.4l20 1.3v-56c7.9 6.2 13.8 12.4 24 14.6a40 40 0 0 0 16 .6c31.3-5.5 42.6-40.4 35.4-68.5-4.5-17.6-17.8-33.2-36.7-34.6q-4.3-.4-8.7-.3m639.3.2-24 3-16 13-1.3-12.5-17.3-2.2 1.3 100 18.7 1.4c4.8-16.3 1.3-37.7 1.3-54.7 0-13 4.9-25.8 18.7-29.8 5.8-1.7 12.6-.9 18.6-.9zm-559.7 1c-4-.3-8.2.3-11 .3v49.4c0 17.7-1 41.6 18.7 49.6a55 55 0 0 0 15.5 3.3c5.3.4 11.5-.6 16.5-2.4 7.4-2.6 11.6-8.5 17.4-13.2l1.3 14.7h17.3V845.3h-20c0 12.5 1.4 24.9 1.4 37.4 0 12.3 1.3 26.7-6.2 37.3-9.5 13.4-31.6 16.9-39.7 0-2.8-5.7-2.1-12.5-2.1-18.7v-34.6c0-5.3 1-12-.6-17.2-1-3.3-4.6-4.3-8.5-4.5m-243 .3v49.4c0 10.2-.9 20.8 2.4 30.6 6.9 20.7 32.2 27.7 51 18.5 5.7-2.8 8.9-7.6 13.3-11.8l1.4 14.7 18.6-1.4-1.3-38.6v-61.4h-18.7V888c0 10 .7 20.2-4 29.3-7.2 14.3-27 20.2-38.1 6.6-5.8-7-5.9-17.9-5.9-26.6v-52zm630.7 0V896c0 10.3-1 20.9 2.8 30.7 7.2 18.6 29.9 26 47.9 18.4a44 44 0 0 0 16-13.1l1.3 14.7h18.7V845.3h-20v44c0 9.3.7 19.5-3.6 28-7.2 14.3-27.6 20-38.5 6.6-6.4-7.7-5.9-18.5-5.9-27.9v-50.7zm525.4 0v100h18.6v-100zm182.6 0-18.6 2.2v97.8h18.6zm-480.6 12.4q7-.2 14 4.5c4.3 3.1 15.2 16.4 8.5 21.8-3.8 3-11 .4-15.2.1a144 144 0 0 0-34.7 1.2c.7-14.6 13.4-27.5 27.4-27.6m-695.8 1c35.8-.7 39.8 68.7 4.4 73-40.7 5.1-46.2-67.2-8-72.6zm-1175.7 278v.2z" style="fill:#1d0808;stroke:none"/><path d="M1814.8 925.3a850 850 0 0 0-1.3-50.3c-.7-16-1.2-29.2-1.1-29.3s12.8 1.3 15.7 1.8l1 .2.7 6.2a32 32 0 0 0 1 6.2c.3 0 3.2-2.4 7.7-6.2a35 35 0 0 1 22.7-10.4c4-.5 10 0 15.4 1.4q18.9 4.5 23.4 26.8a95 95 0 0 1 1.4 23v33.7c0 9-.1 11.7-1 16.1l-.5 1.9h-17.1l-.3-2.2-.4-24.5c0-12.2-.2-26.8-.4-32.4-.6-14.2-1.3-16.7-6.4-22a19 19 0 0 0-15.9-5.8A28 28 0 0 0 1835 878c-1.6 5.2-1.7 7-1.7 38v29.1l-8.8.6-9.2.6c-.3 0-.4-4.5-.4-21.1m-83.7 22a38 38 0 0 1-20.5-7.3 33 33 0 0 1-10.5-20.5c-1.1-6.7-1.4-14.1-1.4-44.6v-29.2l2.2-.3c4.1-.4 10.3-.2 12.4.4q3.8 1.2 5 4.7c.2 1.2.3 8.7.3 31.9-.1 26.2 0 30.6.4 32.9 1.7 7.8 7.5 14 15 15.7 3.2.8 8.5.5 12-.5a27 27 0 0 0 18.5-18.3c2-6.2 2.3-9.4 2.3-24.7a594 594 0 0 0-1.2-38.3v-3.6h19.5v100.8h-17l-.1-2-.7-7.3c-.2-2.9-.5-5.2-.6-5.2-.2 0-2.6 2-5.4 4.6-6.9 6.3-9.1 7.7-14.4 9.2a46 46 0 0 1-15.8 1.5M1588.7 987l-8.4-.7-.1-28c0-15.5-.3-47.1-.7-70.4l-.6-42.3c.2-.2 18 1.9 18.1 2l.7 5.5c.7 6 .8 6.9 1.2 6.9l5.7-4.8c7.7-6.8 11.2-9 16.2-10.3a63 63 0 0 1 24 .4c15.8 4 27.8 18.6 31.5 38.5a89 89 0 0 1-.1 23.9c-4 19.1-14.6 32.5-30.3 37.7a40 40 0 0 1-29-1.6 60 60 0 0 1-11.7-8c-2.8-2.2-5.1-4-5.3-4s-.2 12.6-.2 28v27.9h-1.4zm44.8-55.2c6-.9 10.1-3 14.5-7.3a31 31 0 0 0 7-11 49 49 0 0 0-5.8-45.3 25 25 0 0 0-19.7-9.6 28 28 0 0 0-22.5 10.9 46 46 0 0 0-3 45.8c6 12.2 16.8 18.2 29.5 16.5m-138.3 15a33 33 0 0 1-27.2-26c-1.1-5.4-1.3-10.7-1-43.4v-32h18l.2 31.3c0 20.5.3 32 .5 33.5 1.3 7.5 3.2 11.7 6.9 15.4a19 19 0 0 0 14.6 6c12-.1 22.2-9 25-22 1.1-5 1.3-9.7 1.3-37v-27.1h18.4v33.1c0 23.7.2 38 .6 49.8l.6 16.7-9 .6c-4.9.4-9 .5-9.1.4l-.9-7.1c-.3-3.9-.7-7-.8-7.2s-2 1.7-4.1 4-5 5-6.4 5.9a37 37 0 0 1-27.6 5.1m-92.3.5a43 43 0 0 1-33-24 60 60 0 0 1-6.4-30.4 52 52 0 0 1 14-35.2 48 48 0 0 1 30.6-14.4c12.3-1.3 29 3 35.5 9a9 9 0 0 1 2.9 6.2c0 1.7-1 5-2.6 8.5-.5 1.1-1 2.3-1 2.6-.3.6-.4.6-1.7 0l-5.5-3.3c-11-6.6-17.3-8.5-25-7.4-13.2 1.8-22.6 11.4-26.2 27-.7 2.7-.8 4.4-.8 10.2 0 6.3 0 7.2 1 10.6 2.9 11.6 9.4 19.7 18.5 23.2a30 30 0 0 0 22.2-.5c3.5-1.4 4.8-2 12-6.2 2.8-1.6 5-2.7 5.2-2.5s5 14.2 5 14.9a81 81 0 0 1-30.2 11.6c-4 .5-11.1.6-14.5.1m-63.3-1q-6.9-1.2-10.5-8.6c-.8-1.6-2.3-5.8-3.4-9.3-2.6-8-4.2-11.2-7-13.8-3.3-3-4-3.2-16.4-3-6 0-15.7-.2-23.6-.5-7.3-.3-16-.5-19.4-.5-7.6.2-9.3.7-12.4 3.8-2.6 2.7-4 5.6-7 14.3-1.4 4-3 8.5-3.8 9.8-2.2 4.4-4.7 6.5-9 7.4-2.6.6-13.4.5-13.4 0 0-1 1.1-5.4 2.5-9.5 2-6 4.3-11.5 9.7-22.7a1126 1126 0 0 0 35.7-84.2c4.3-12.2 7.1-18 10.6-21.7 2.8-3 4.3-3.5 8.3-3.6a15 15 0 0 1 12.9 6 64 64 0 0 1 7.7 15.8 662 662 0 0 0 19 44l15.8 35.3c2 4.7 5.7 12.5 8 17.3s5 10.5 5.8 12.7a48 48 0 0 1 3.2 10.9c-.3.4-11.3.4-13.3 0m-29-52.5-4.6-12.2c-3.7-9.8-22.8-53.7-23.3-53.7l-5.6 11.4c-5 10.5-7.8 17.4-21.3 52l-1.4 3.4h56.6zm653.1 53.8a46 46 0 0 1-21-8.3c-17.7-12.6-24.6-38.7-16.7-62.5a48 48 0 0 1 29.7-31.4 55 55 0 0 1 30.6-.9 34 34 0 0 1 15.8 8c3.8 3.6 5.1 7.6 3.6 10.8-.8 1.7-3.3 4.1-4.5 4.4q-2.4.6-10.7-4c-7-3.9-8.9-4.4-16-4.5a25 25 0 0 0-13.3 2.7c-12.1 5.6-19 18.6-18.2 35a38 38 0 0 0 11.6 27.4 28 28 0 0 0 21.2 7.5c6.4-.3 11-2 21.6-8.4l5.2-3.1 2.6 7.7c2.5 7.6 2.5 7.8 1.8 8.3a80 80 0 0 1-29.4 11c-3.1.5-11.6.6-13.9.3m92.6-1.6a24 24 0 0 1-18-11.1c-4.8-7.4-6.5-17.3-5.6-32.6 1-19.3.8-33.2-.8-37.2-.6-1.7-1-2.2-2.3-2.9-1.4-.7-2.2-.8-6.8-1-5.8-.3-7-.7-8.3-2.8a14 14 0 0 1-.6-7.5c1-3.7 3.3-5 9.2-5q7.3 0 9.7-4.7c1-1.9 1-5.2.1-10.9-.6-4.3-.5-6.2.7-8.4.7-1.3 2.6-3 4.7-4 2.8-1.5 4.8-2 12.2-3l1.3-.1v30.8l4-.3c2.2-.1 7-.3 10.7-.3 7.5 0 9.5.4 11.2 2.3 2.3 2.4 3 7.4 1.3 10.5s-4.2 3.8-11.3 3c-5.5-.6-10.1-.6-11.6 0-3.5 1.5-4.8 5-4.7 12.4a465 465 0 0 0 .9 41q2.7 14.9 14 17.2c3.5.7 6.9.6 11.5-.4.7-.1.8.1 1.4 2.6 1 4 1 7.6-.2 9.6-1.5 2.8-2.3 3-12.2 3a95 95 0 0 1-10.5-.2m71.4 1.4a34 34 0 0 1-29.3-27c-.7-3.5-.7-3.7-.9-39.2v-35.6h18.3l.1 32.2c.2 31.6.2 32.4 1 35.7q1.4 7.4 6.3 12c4.4 4.3 8.5 6 14.6 6a26 26 0 0 0 25-20.5c1.3-5 1.5-11 1.5-38.8v-26.6h19.5v100.8h-9.2c-8.5 0-9.2 0-9.2-.6 0-1.1-1.2-13.7-1.3-13.9l-3.5 3.4c-6 6.4-11 9.5-18 11.3a47 47 0 0 1-14.9.8m91.9-1.6-7.5-.6v-1.6l-.6-49.6c-.3-26.4-.5-48.1-.4-48.2a150 150 0 0 1 16.5 2.1c.2.2.6 3 1 6.2l.7 6c.1.1-.6.6 8.6-6.8l7.5-6 10.7-1.4 11.8-1.5 1.1-.2V861l-8.2.1c-7.7.1-8.4.2-11 1q-14.7 5-17.5 23.2c-.6 3.6-.5 11 .2 23.3.7 13.6.5 25.5-.6 31.3-1.1 6.5-1 6.2-3 6.3zm96.8 1.3a44 44 0 0 1-25.3-13.2c-16.6-17.6-19-49.6-5.1-70.8 2.1-3.3 8.4-9.5 11.9-11.8a49 49 0 0 1 27.2-8.3c7.6 0 13.4 1.4 20 4.7a39 39 0 0 1 19.3 23.5c2 6.1 3.3 14.9 3.3 21.7v3l-32.8-.1c-30.7-.1-32.9 0-34.3.5-1.9.8-3.5 2.6-3.8 4.3a30.6 30.6 0 0 0 25 30.8c7.8 1.4 14.7 0 30.2-6.6 4.5-1.8 7.8-3 8-2.8l2.6 7c2.3 6.6 2.4 6.8 1.8 7.3a84 84 0 0 1-29.7 11c-5 .7-13.5.6-18.3-.2m-13-62.5c3.4-.5 6.8-.6 15.7-.6 10 0 11.9 0 16.5.8 8 1.3 11 .8 13-2.1.7-1 .8-1.6.7-3.9a12 12 0 0 0-1.4-5.3 37 37 0 0 0-7.7-10.2 27 27 0 0 0-10.1-5.2c-3.6-.8-9.4-.5-12.9.7a30 30 0 0 0-19.9 25.2c0 1.5.1 1.6.8 1.4zm193.3 63.1a66 66 0 0 1-32.4-12 71 71 0 0 1-26.2-47.2c-1-6.5-1.1-18.4-.2-24.7 3.3-22.7 13.6-40.5 29.3-51 18-12 44.8-13.4 67-3.6 11 4.8 15.4 8.4 15.4 12.6a22 22 0 0 1-3.4 8.9l-2.1 3.5c-.3.3-4.3-1.8-9.3-5-11-6.9-17.2-9-28-9.4-6-.2-9.4.2-14.3 1.4-21.2 5.3-35 26-34.9 52.6 0 13.3 3.8 26.5 10.7 36.9 2.6 4 9 10.4 12.5 12.8q7.1 4.7 15.9 6.7 2.2.4 8.8.4c5.8 0 7.3 0 10.5-.8 7-1.5 11-3.4 19-8.5 2.7-1.7 5.7-3.6 6.8-4l2-1 .8 1c1.5 1.8 4 6.2 4.5 8.2q.6 1.9.3 3.4c-.3 2.3-2.7 5.6-5.7 7.9s-10.2 5.9-15.3 7.6a77 77 0 0 1-31.7 3.3m78-4.4-.5-20.3c-.6-18.4-.8-122.7-.3-122.7 1.1 0 16.7 1.8 17.3 2 .6.3.7 1 1.3 5.3.5 4.4.6 10.7.6 71.2v66.4l-8.7.6-9.2.6q-.5.1-.5-3.1m48.1-47.9v-49.8h18.4v99.7h-18.4zm7.6-72.8-8.9-.9-.4-6.2-.6-10.2-.3-4h22.4v22.3h-1.6zm40.4 118.4c-.3-7-1.3-95.1-1.2-95.3s16.5 1.8 16.7 2 .5 2.8.8 6c.3 3 .7 5.9.9 6q.3.3 4.4-3.4c9-8.1 13.2-10.6 22-12.4 9.5-1.9 20.6-.2 28.1 4.4a34 34 0 0 1 14 20.4c2.2 8.6 2.7 15.2 2.4 33-.2 7.7-.3 19.8-.3 26.8 0 11.1-.2 13.1-.7 15.4l-.7 2.6-6.8-.2c-6-.1-7-.2-8.4-.9-3.1-1.4-4-5.2-3.5-14 .5-6.9.5-48.8 0-52.6a21 21 0 0 0-22.4-19c-4.2.3-6.8 1-10.7 2.9q-10.7 5.4-14.3 16.6c-1.8 5.9-1.8 7.2-2 38.2l-.2 28.9H2671zm116.2-44.5v-48.8l1.1-.2 16.8-2 .1 50v49.8h-18zm2.3-72.7a10 10 0 0 1-2.6-1.1c-3.7-2.7-4.2-14.5-.8-19.2.8-1.1 3-2 5.7-2.4h8.3l6.5.3V824l-4.3.2q-9.6.5-12.8-.3m79.8 123.1a42 42 0 0 1-35.2-25.4c-10.1-21.3-6.3-49.4 8.7-64.4a53 53 0 0 1 49-12.4c7 1.8 13.1 4.8 22.5 11.2.5.3-2 6.2-3.5 8.6q-2.1 3.4-5 3.3c-2 0-3.3-.5-7.3-3.1a32 32 0 0 0-10.2-4.7c-2.5-.7-3.8-.8-8.6-.8-5 0-6 0-8.3.8-14.3 4.5-23 17.8-23 35 0 14 5.8 25.8 15.7 32.3a28 28 0 0 0 16.6 4.8c5.3-.7 8.1-1.6 17.4-6 5.4-2.5 11-4.7 11.3-4.4l2.7 6.4 2.5 6.4-1 .8a60 60 0 0 1-44.3 11.6" style="fill:#c2181c;fill-opacity:1;stroke-width:.353791"/></svg>