<?xml version="1.0" encoding="UTF-8" standalone="no"?>
<!-- Created with Inkscape (http://www.inkscape.org/) -->

<svg
   version="1.1"
   id="svg1"
   width="3256"
   height="1240"
   viewBox="0 0 3256 1240"
   sodipodi:docname="Qi_web_logo_full_with_bg.svg"
   inkscape:version="1.4.2 (ebf0e940, 2025-05-08)"
   xmlns:inkscape="http://www.inkscape.org/namespaces/inkscape"
   xmlns:sodipodi="http://sodipodi.sourceforge.net/DTD/sodipodi-0.dtd"
   xmlns="http://www.w3.org/2000/svg"
   xmlns:svg="http://www.w3.org/2000/svg">
  <defs
     id="defs1" />
  <sodipodi:namedview
     id="namedview1"
     pagecolor="#ffffff"
     bordercolor="#999999"
     borderopacity="1"
     inkscape:showpageshadow="2"
     inkscape:pageopacity="0"
     inkscape:pagecheckerboard="0"
     inkscape:deskcolor="#d1d1d1"
     inkscape:zoom="0.31211037"
     inkscape:cx="1839.093"
     inkscape:cy="724.10281"
     inkscape:window-width="1512"
     inkscape:window-height="945"
     inkscape:window-x="0"
     inkscape:window-y="37"
     inkscape:window-maximized="0"
     inkscape:current-layer="g1" />
  <g
     inkscape:groupmode="layer"
     inkscape:label="Image"
     id="g1">
    <path
       id="path27"
       style="fill:#1d0808;stroke:none"
       d="m 452.46875,54.689453 c -2.19997,-0.03173 -4.57387,0.29319 -7.13477,1.029297 -22.44262,6.451009 -24.2631,38.472435 -22.4414,57.61523 0.87231,9.16651 2.14721,17.91814 5.11328,26.66602 1.94934,5.74935 5.72358,11.28499 6.48437,17.33398 2.11389,16.80786 0.17579,35.05493 0.17579,52 V 312 462.66602 c 0,25.20166 -1.3844,50.84326 0.0586,76 0.59392,10.35473 7.65535,18.62548 7.92187,29.33398 2.36739,95.12537 0.37656,190.22331 2.70704,285.33398 2.12883,86.88025 3.73066,173.81022 3.95312,260.80082 0.29414,0.019 0.61508,0.2232 0.85547,0.6543 0.04,-0.01 0.0798,-0.015 0.11914,-0.018 0.13768,-0.01 0.26941,0.019 0.38477,0.082 v -0.1875 H 452 v 0.3672 c 0.21959,-0.2249 0.48733,-0.3296 0.75,-0.3184 0.20649,0.01 0.40973,0.09 0.58398,0.2422 v -37.623 c 0,-27.1575 1.33204,-54.2569 1.33204,-81.334 0,-23.39274 -1.47888,-47.33089 0.11914,-70.66602 1.97522,-28.84326 0.52567,-57.74511 1.23437,-86.66796 1.7524,-71.51701 1.8001,-143.02938 2.65235,-214.66602 0.2423,-20.36776 -0.5472,-42.38725 1.46874,-62.66602 0.66058,-6.64477 4.90943,-11.87573 5.16797,-18.66796 2.99154,-78.58928 0.0254,-157.37801 0.0254,-236 V 212 c 0,-16.31966 -1.08116,-33.05949 0.11914,-49.33398 0.61728,-8.36939 5.33777,-14.87582 7.8418,-22.66602 3.51937,-10.94897 5.33415,-23.17749 5.3711,-34.66602 0.0538,-16.747307 -4.93092,-50.337834 -26.19727,-50.644527 z m -1.75586,15.482422 c 6.44243,-0.09956 9.96678,10.281738 11.30078,15.162109 3.96163,14.493327 2.53309,30.967696 -1.18359,45.332036 -1.24239,4.80159 -3.2395,13.60758 -8.95117,14.99804 -7.66069,1.86499 -11.1038,-11.1403 -12.33985,-16.33008 -3.38993,-14.23323 -4.20227,-31.20247 0.16016,-45.33398 1.44645,-4.685628 4.23824,-12.4139 9.6875,-13.664062 0.45566,-0.104541 0.89668,-0.157426 1.32617,-0.164063 z M 422.66602,230.66602 c -12.59253,3.00618 -25.89148,3.59725 -38.66602,5.90039 -21.42167,3.86214 -42.20463,9.36084 -62.66602,16.83789 C 227.19225,287.80583 147.52138,360.76017 105.74414,452 79.336561,509.6731 66.441965,575.24308 70.785156,638.66602 77.448959,735.9764 123.42979,830.45948 196,895.77344 c 34.86438,31.37826 75.28792,55.49112 118.66602,72.82617 37.66939,15.05363 79.27937,24.73437 120,24.73437 l -1.33204,-142.66796 c -7.59814,-1.35531 -14.00301,-5.45313 -19.99609,-10.22461 C 378.39156,812.618 387.5553,750.41227 432,737.33398 L 430.66602,616 c -24.3831,0.20182 -50.01746,10.6178 -70.66602,22.93359 -68.03143,40.57723 -102.71912,121.11393 -84.46094,198.40039 11.65458,49.33358 44.82062,94.12395 89.79492,118.01368 14.43596,7.66813 29.69157,12.21403 45.33204,16.65234 v 1.33398 C 387.09709,967.70711 363.24101,965.19619 340,957.67188 287.96822,940.82641 241.24896,911.72834 201.33398,874.54688 132.08824,810.04314 92.16692,716.62223 88.052734,622.66602 84.216278,535.05225 119.19747,440.96305 177.56055,376 c 50.66313,-56.39233 113.862,-97.69011 187.77343,-116.16797 13.62354,-3.40593 27.48788,-5.65161 41.33204,-7.93945 4.10726,-0.6788 13.19954,0.12606 15.96289,-3.36328 3.2539,-4.10881 1.3708,-13.35148 0.0371,-17.86328 z M 477.33398,232 v 18.66602 c 19.06169,1.51717 37.73881,8.42642 54.66602,17.00976 103.14791,52.30371 129.49581,194.23755 55.60547,281.6582 -19.52885,23.10482 -44.30745,42.76225 -72.93945,53.26172 -9.95785,3.65157 -20.21058,6.73174 -30.66602,8.58399 -3.78503,0.67058 -10.52792,-0.15756 -12.5293,3.91015 -3.6442,7.40661 -0.80468,22.0634 -0.80468,30.24414 0,20.87415 -1.33204,41.72103 -1.33204,62.66602 0,7.40316 -2.30745,19.48917 0.80469,26.30078 2.54138,5.56233 13.1735,8.88957 17.86133,12.80078 9.86287,8.22909 17.323,19.11312 20.68164,31.56446 7.76327,28.78051 -9.27279,66.40112 -40.68164,72 l -1.33398,142.66796 c 47.18025,0 94.48148,-12.27539 137.33398,-31.59375 48.18677,-21.72314 90.4865,-52.36002 126.54688,-91.07421 51.10743,-54.86857 85.89974,-127.12989 96.88281,-201.33204 C 844.9948,550.663 803.3606,426.02295 718.66602,341.33398 687.22542,309.89551 648.67733,283.50415 608,265.51953 567.53097,247.62703 522.14836,232.12362 477.33398,232 Z m 626.00782,117.99219 c -5.5704,-0.037 -11.1401,0.18903 -16.6758,0.67383 -22.8601,2.00195 -45.5978,9.04256 -65.332,20.80664 -22.99439,13.70752 -39.52394,33.81966 -53.06642,56.52734 -16.55868,27.76506 -23.65626,61.36035 -24.28516,93.33398 -0.82447,41.91744 7.021,85.27657 32.22852,120 13.61702,18.75749 31.17606,35.39617 51.78906,46.23829 10.8178,5.68994 24.7284,7.76041 34.666,14.63085 11.195,7.73983 20.1445,19.1823 30.668,27.84571 24.4124,20.09717 52.626,36.58243 82.666,46.59765 19.793,6.59887 40.4125,11.35352 61.334,11.35352 5.4044,0 16.0318,1.98819 20.5273,-1.57227 3.3448,-2.64917 2.1383,-9.35083 2.1387,-13.09375 -49.0574,0 -92.0835,-32.78702 -117.334,-73.33398 131.5922,-30.16793 151.2411,-220.97982 66.5488,-307.94727 -27.8389,-28.58674 -66.8802,-41.80157 -105.873,-42.06054 z m 1800.9375,2.58008 c -31.2927,-0.59799 -63.2688,13.47137 -77.6231,42.09375 -9.6592,19.26025 -9.3222,40.40169 -9.3222,61.33398 H 2780 v 24 l 25.334,0.002 9.8613,2.13672 2.1387,15.19531 v 40 V 696 h 48 V 480 h 68 v -24 h -68 c 0,-22.57625 -1.1303,-45.35897 11.289,-65.33398 17.988,-28.9314 54.9353,-13.57854 71.377,8 4.3945,-2.73674 12.529,-6.80841 14.1055,-12.11914 1.1133,-3.75041 -2.0202,-7.68759 -4.0254,-10.54493 -5.7484,-8.19157 -13.9545,-14.52523 -23.4141,-17.9375 -9.6008,-3.46319 -19.9558,-5.29286 -30.3867,-5.49218 z m -1158.8242,6.48046 C 1733.2938,358.55432 1720.574,360 1710.666,360 H 1540 v 12 c 6.269,0.0173 12.6007,0.37548 18.666,2.13086 29.8535,8.64029 22.668,50.08675 22.668,73.86914 v 248 h 33.332 l 13.8633,-1.37109 L 1630.666,684 V 657.33398 578.66602 L 1629.334,540 l 32,-1.33398 h 56 21.332 l 9.2246,-2.08399 L 1748,516 H 1630.666 V 429.33398 L 1629.334,384 c 12.2966,-2.92749 26.0773,-1.33398 38.666,-1.33398 24.9274,0 55.9358,-5.10588 78.666,7.0996 11.9166,6.39894 19.3239,17.32821 22.7695,30.23438 1.4009,5.2474 0.5397,14.95157 3.9336,19.19531 2.9487,3.68701 9.5833,1.90194 13.2969,0.80469 -1.0249,-15.11214 0.1758,-30.19751 -1.2324,-45.33398 -0.8245,-8.86296 -1.9691,-18.24293 -8.5391,-24.89844 -7.674,-7.77385 -19.2781,-10.21643 -31.4394,-10.71485 z M 2377.334,360 v 12 c 5.7883,0.0479 11.7612,0.44434 17.332,2.16406 29.9586,9.24838 22.668,49.54387 22.668,73.83594 v 248 h 157.332 46.668 L 2648,694.66602 v -21.33204 h -133.334 -32 c -4.5459,-0.008 -10.3904,0.61593 -13.6758,-3.24609 -4.1557,-4.88513 -2.3242,-14.80668 -2.3242,-20.75391 v -54.66796 -164 c 0,-20.54444 3.2769,-49.04705 -14.6855,-63.47852 C 2443.1341,360.08007 2432.1091,360 2421.334,360 Z m 330.2773,6.59961 c -2.017,0.0266 -4.1121,0.27641 -6.2773,0.77344 -36.6827,8.42049 -19.9108,66.42276 16,57.01562 33.1775,-8.6911 20.5331,-58.18865 -9.7227,-57.78906 z m -1363.9629,0.01 c -2.0203,0.0192 -4.127,0.26507 -6.3144,0.76367 -36.7016,8.3658 -21.5217,65.85702 14.666,57.25 32.6666,-7.76954 21.9534,-58.30099 -8.3516,-58.01367 z m -245.4394,5.0371 c 43.6476,-1.55803 76.1942,28.44034 92.6426,68.35352 21.7423,52.75936 22.2591,120.39697 1.1484,173.33398 -14.0132,35.13937 -40.9772,64.15878 -80,68.95118 -46.8681,5.7559 -81.5106,-25.53923 -98.8652,-66.28516 -22.75084,-53.41488 -22.07851,-122.30965 -0.6016,-176 13.3362,-33.33936 39.6428,-62.78442 76.8008,-67.61328 3.007,-0.39078 5.9651,-0.63637 8.875,-0.74024 z m -620.87502,5.6875 v 108 c 8.06637,-2.5756 14.15804,-8.29597 19.59766,-14.66796 24.53227,-28.73723 16.09847,-77.92644 -19.59766,-93.33204 z M 424,378.66602 C 413.0269,381.26758 404.83577,390.61532 399.27148,400 382.67061,427.99886 391.33545,472.76904 424,485.33398 Z m 1486.7793,71.50586 c -5.363,-0.0187 -10.7489,0.33224 -16.1133,1.0625 -24.6617,3.35718 -47.7875,13.32983 -65.2812,31.4375 -45.5979,47.19848 -47.2758,137.07576 -2.3321,185.20898 27.6729,29.63676 67.62,37.2347 106.2813,31.73828 88.5012,-12.58187 112.1943,-131.28019 71.3808,-198.28516 -19.9801,-32.8021 -56.3945,-51.03109 -93.9355,-51.1621 z m 1155.5391,0.008 c -15.5546,-0.46139 -31.1499,2.17047 -44.9844,7.75781 -75.3893,30.44751 -89.0782,147.08618 -40.7149,206.0625 17.5644,21.41895 41.7348,32.89836 68.7149,36.76172 31.7536,4.54679 66.2548,-4.93563 89.332,-27.44727 5.456,-5.32218 22.4815,-19.06641 17.7188,-27.97461 -1.8711,-3.49976 -6.6267,-8.0398 -10.9317,-6.43945 -6.6061,2.45568 -12.2891,13.5022 -17.4551,18.3125 -10.862,10.11385 -24.1259,17.1696 -38.664,20.11523 -6.8694,1.39189 -13.0869,1.36332 -20,0.36719 -46.1214,-6.64579 -65.2181,-53.05273 -65.334,-95.02929 h 117.334 28 c 3.2279,-0.007 8.3379,0.7535 10.6289,-2.13672 2.3105,-2.91496 1.5609,-8.77112 1.9844,-12.30274 1.5928,-13.27852 0,-28.49926 -2.8301,-41.56054 -3.8187,-17.63428 -11.2731,-34.46786 -23.7031,-47.77344 -17.3613,-18.58414 -43.1715,-27.94392 -69.0957,-28.71289 z m -882.5118,0.56445 c -13.0168,0.32826 -26.6945,5.34823 -37.1406,12.40234 -4.8654,3.28556 -12.5822,14.11329 -18.5273,14.11329 -3.7635,0 -6.1091,-5.38997 -8.0371,-7.90625 -3.8504,-5.02506 -8.6278,-9.07349 -14.7676,-10.95508 -19.52,-5.98226 -43.7999,-2.39844 -64,-2.39844 0,3.29549 -0.8288,8.42252 1.3691,11.19531 3.4878,4.40022 15.9515,2.36474 21.2969,4.76367 8.7765,3.93888 14.0937,12.17562 15.873,21.375 4.8579,25.11678 2.793,51.85979 2.793,77.33204 V 696 h 48 V 561.33398 526.66602 c 0,-5.63957 -1.0133,-12.34115 2.1387,-17.33204 12.5941,-19.9414 41.27,-29.60448 63.1953,-22.6289 4.7679,1.51693 9.1897,3.50488 13.334,6.32617 2.7906,1.89958 5.8168,5.14218 9.332,5.56055 5.5691,0.66284 19.299,-11.80062 19.9707,-17.27735 0.6115,-4.98519 -4.9101,-10.1066 -8.0234,-13.29492 -11.1579,-11.42651 -25.6751,-15.81583 -41.2793,-17.12109 -1.8213,-0.15235 -3.6678,-0.20119 -5.5274,-0.1543 z M 1284,456 c 0,3.29549 -0.8269,8.42236 1.3711,11.19531 2.5468,3.21305 8.4078,1.97273 11.9629,2.26172 6.0833,0.49446 12.5679,2.72645 17.0488,6.99609 10.6005,10.10083 9.6172,27.521 9.6172,40.88086 V 594.66602 664 c 0,7.85238 -2.6973,21.79313 0.8047,28.91016 1.7663,3.58951 6.5065,3.06478 9.8613,3.08789 8.8875,0.0612 17.7803,0.0199 26.668,0.002 3.2087,-0.007 8.3476,0.7583 10.6152,-2.13281 2.831,-3.6097 0.2518,-11.04712 0.1,-15.20508 -0.463,-12.41032 -0.049,-24.90938 -0.049,-37.32813 V 520 c 0,-18.74276 2.5402,-40.12101 -12.125,-54.52734 C 1350.4528,456.21688 1337.7321,456 1325.334,456 Z m 1364,0 c 0,3.29574 -0.827,8.42219 1.3711,11.19531 2.0988,2.64786 6.3282,2.05818 9.2949,2.15625 5.1186,0.16919 9.9889,1.1871 14.666,3.33985 8.7088,4.00847 12.5801,11.56518 14.3184,20.64257 4.425,23.10816 1.6836,48.52857 1.6836,72 V 696 h 48 V 529.33398 c 0,-21.17431 4.587,-49.31689 -13.3867,-64.89648 C 2714.4409,456.19743 2702.5997,456 2690.666,456 Z m -737.5391,17.39062 c 25.1689,-0.10286 43.2498,22.0184 51.9336,43.94336 14.4024,36.36239 13.9094,83.8903 -1.0761,120 -8.4346,20.3243 -23.4983,38.79033 -46.6524,41.10547 -29.5028,2.94991 -50.6317,-20.6899 -59.541,-46.43945 -12.3988,-35.83476 -13.5253,-80.72534 1.4453,-116 9.1915,-21.65771 24.4289,-39.33415 48.7637,-42.28516 1.7402,-0.21103 3.449,-0.31736 5.1269,-0.32422 z m 1149.0801,0.75977 c 13.5948,-0.28957 27.3041,5.25664 35.4082,16.51758 C 3109.0166,510.21534 3112,536.65934 3112,560 h -108 c 4.9736,-26.79053 5.2969,-54.21769 26.7188,-74.52734 7.7429,-7.34109 18.2485,-11.09705 28.8222,-11.32227 z M 2573.334,800 v 98.66602 l 1.332,48 18.668,-1.33204 V 840 813.33398 l -1.3711,-11.19531 z m 220.7148,0.7832 c -2.6057,0.0681 -5.0515,0.41687 -6.959,1.35547 -4.6426,2.28458 -4.8124,17.43189 -0.9511,20.49024 4.3438,3.44043 15.2353,1.37109 20.5273,1.37109 v -22.66602 c -3.4861,0 -8.2742,-0.66427 -12.6172,-0.55078 z M 2620,801.33398 2621.3711,821.86133 2642.666,824 v -22.66602 z m -115.875,1.18946 c -6.2808,-0.0462 -12.5895,0.67148 -18.791,2.14648 -60.4793,14.38484 -64.9675,114.68091 -9.334,138.16211 16.8016,7.09139 39.0811,7.42073 56,0.5332 5.9741,-2.43197 17.5181,-7.79532 17.7188,-15.36718 0.114,-4.3068 -3.482,-8.60287 -5.7188,-11.99805 -5.8955,2.26774 -10.429,6.45842 -16,9.35352 -9.181,4.77108 -20.4684,6.53186 -30.666,4.69336 -44.8729,-8.09051 -53.5114,-81.43596 -16,-104.07422 12.9532,-7.81722 30.3645,-7.89625 44,-1.91407 6.6228,2.90551 12.0255,7.81413 18.666,10.60743 2.208,-3.78369 6.722,-9.77051 5.5781,-14.41993 -1.3377,-5.43734 -10.3443,-9.04036 -14.9121,-11.09375 -9.684,-4.35318 -20.0729,-6.55198 -30.541,-6.6289 z m -1222.3242,1.49609 c -0.9829,-0.0561 -2.0184,-0.0393 -3.1133,0.0586 -11.162,0.99781 -16.3094,24.29867 -20.0059,33.25586 -8.8151,21.36011 -17.6164,42.92578 -27.0898,64 -6.3867,14.20769 -15.6065,29.93474 -18.2578,45.33204 5.7669,-0.13452 15.7127,1.17203 20.0078,-3.42188 8.6899,-9.29476 6.1856,-31.82374 22.6523,-32.34766 14.0082,-0.44581 28.5521,1.10352 42.6719,1.10352 5.2034,0 13.5657,-1.55127 18.1465,1.37109 9.9641,6.35661 7.5635,23.97169 17.041,30.98438 4.8612,3.59684 13.7639,2.3099 19.4805,2.31055 -2.131,-11.95459 -9.4949,-23.54704 -14.293,-34.66602 -11.1803,-25.90885 -23.2205,-51.46566 -34.4746,-77.33398 -5.3818,-12.37046 -8.0225,-29.80545 -22.7656,-30.64649 z M 2052,814.66602 c -6.4264,0.5249 -17.6906,1.59993 -19.4492,9.27343 -1.3496,5.88916 3.6409,14.25895 -1.3555,19.25586 -6.1861,6.1866 -17.0732,-2.43603 -17.7773,10.13867 -0.068,1.21143 -10e-4,2.63079 0.3398,3.80274 2.0539,7.0634 11.4635,2.33577 16.211,5.44726 3.3016,2.16398 2.8079,9.90137 3.1386,13.41602 1.8278,19.42179 -6.6142,46.27539 7.5977,62.41992 7.2705,8.25911 17.1618,8.29949 27.2949,8.2461 3.2826,-0.0173 8.2879,0.57161 10.6289,-2.32227 2.8179,-3.48324 1.1535,-9.90283 0.037,-13.67773 -3.0786,0.5695 -6.18,1.29777 -9.334,1.03515 C 2047.8058,929.90877 2052,903.0363 2052,888 c 0,-6.88965 -1.9126,-17.20663 0.752,-23.64844 3.3577,-8.11784 17.8787,-0.72054 24.2089,-3.85547 4.4611,-2.20931 4.1269,-12.15885 -0.205,-14.35742 -6.1297,-3.111 -17.9577,-0.80469 -24.7559,-0.80469 z M 1282.666,828 l 18.9356,42.66602 9.0644,24 h -56 l 17.3203,-44 z m 689.9883,14.55469 c -7.697,-0.0254 -15.3906,1.48717 -21.9883,4.64843 -33.9305,16.25834 -38.4247,72.26164 -6.6601,93.31836 20.3853,13.51326 44.8794,6.98536 63.9941,-4.52148 l -5.334,-16 c -9.7115,5.52677 -18.7313,12.7487 -30.666,11.74805 -26.7043,-2.23917 -35.649,-36.27816 -24.127,-57.08008 7.2884,-13.15853 22.0494,-18.3003 36.127,-14.08203 4.6038,1.37947 14.7096,10.06877 18.9141,6.53125 9.2783,-7.8064 -0.9864,-16.69783 -8.2481,-19.98242 -6.6144,-2.9917 -14.3147,-4.55466 -22.0117,-4.58008 z m 351.3906,0.17187 c -14.7942,0.37422 -29.6581,7.58882 -38.0879,19.94532 -16.7502,24.55249 -10.7269,68.08602 18.043,80.86328 20.6488,9.17058 42.9926,3.50618 61.334,-7.53516 L 2360,921.33398 c -16.4497,6.22404 -31.9694,16.6307 -49.3281,5.37305 -6.765,-4.38729 -10.8772,-11.01017 -12.8321,-18.70703 -0.7755,-3.05379 -2.109,-7.21208 0.3497,-9.86133 C 2301.958,894.07812 2312.3388,896 2317.334,896 H 2368 c -0.01,-14.28206 -2.3398,-30.12516 -12.623,-40.93164 -8.3604,-8.78574 -19.8255,-12.63285 -31.3321,-12.3418 z m 397.2891,0.0781 c -5.3478,0.24341 -11.1196,1.53801 -16,3.73633 -6.9769,3.1425 -11.6768,8.58463 -17.334,13.45898 l -1.3711,-12.5293 -17.2949,-2.13672 1.332,101.33204 h 18.668 v -44 c 0,-9.05249 -0.4672,-19.7666 3.8926,-27.99805 8.1364,-15.36173 30.9227,-21.31372 41.8359,-5.31445 4.0661,5.96086 3.6031,13.10652 3.6035,19.98046 v 36 c 0,4.5328 -2.1507,16.9012 2.1387,19.84375 3.333,2.28654 12.2764,0.95508 16.5293,1.48829 2.7067,-9.15764 1.332,-19.82414 1.332,-29.33204 0,-24.82291 6.6049,-65.21622 -25.332,-73.01562 -3.9034,-0.95329 -7.9687,-1.69718 -12,-1.51367 z m 159.418,0.13476 c -17.0295,-0.62663 -34.4965,6.34537 -44.0215,21.0625 -17.538,27.09814 -8.5795,74.20621 25.9355,81.98047 8.5231,1.91975 16.7474,2.24089 25.334,0.79102 10.2542,-1.73144 18.2623,-6.14055 26.666,-12.10742 l -5.332,-13.33204 c -13.5459,3.48373 -23.4405,14.48266 -38.668,9.1875 -25.8913,-9.00342 -29.9209,-49.08284 -9.2129,-65.2832 9.4052,-7.35799 21.1202,-7.76928 31.8809,-3.26562 3.7842,1.5839 8.7757,6.79901 13.0488,6.13672 4.5912,-0.71169 6.9469,-8.43897 8.2832,-12.10938 -8.3301,-5.91488 -16.4765,-10.62663 -26.666,-12.32812 -2.3905,-0.39919 -4.8153,-0.64291 -7.248,-0.73243 z m -1465.4082,0.0879 c -13.9638,-0.55522 -27.543,3.94459 -37.9571,14.35938 -22.6505,22.65202 -18.0906,71.63468 11.9473,86.07617 20.2064,9.71476 40.6291,2.53906 58.666,-7.46289 l -5.334,-16 c -9.7912,5.45109 -18.7423,12.48658 -30.666,11.7168 -39.5443,-2.55297 -36.9939,-72.8086 2.666,-72.8086 11.1229,0 18.7256,7.02955 28,11.75782 1.3204,-3.87899 4.6796,-9.1499 4.0098,-13.3125 -1.094,-6.7998 -11.6261,-10.54346 -17.3418,-12.11719 -4.6369,-1.27672 -9.3359,-2.02391 -13.9902,-2.20899 z M 1864,843.06055 c -4.0552,0.0607 -8.2212,0.84917 -12,1.98633 -8.7466,2.63197 -14.1277,9.8776 -21.334,14.95312 l -1.3691,-12.5293 -17.2969,-2.13672 2.5566,57.32813 0.1094,44.00391 18.668,-1.33204 v -44 c 0,-8.92456 -0.9034,-18.42707 3.2363,-26.66601 7.7692,-15.46232 31.418,-22.23616 41.791,-5.28125 3.967,6.48405 2.6357,14.07284 3.1797,21.2793 1.3981,18.52286 -0.9211,37.68245 1.125,56 H 1900 c 3.0413,-10.28907 1.334,-22.64193 1.334,-33.33204 0,-20.92684 5.1278,-54.27733 -17.334,-66.07812 -4.7938,-2.51855 -10.6776,-3.36589 -16,-3.99805 -1.3086,-0.15539 -2.6483,-0.21751 -4,-0.19726 z m -234.0391,0.72851 c -2.96,0.0402 -5.9063,0.28817 -8.6269,0.91602 -9.7755,2.25602 -15.1444,9.56364 -22.668,15.29492 l -1.3691,-12.5293 -18.6309,-2.13672 1.3672,88.05274 -0.033,53.2793 20,1.33398 v -56 c 7.8757,6.16317 13.8185,12.40551 24,14.64648 5.4323,1.19564 10.5099,1.50156 16,0.53321 31.2813,-5.51725 42.6017,-40.35661 35.3613,-68.51367 -4.5102,-17.54021 -17.7521,-33.15512 -36.6953,-34.54493 -2.7725,-0.20341 -5.745,-0.37226 -8.7051,-0.33203 z M 2269.334,844 l -24,3.03906 -16,12.96094 -1.3711,-12.5293 -17.2969,-2.13672 1.334,100 18.666,1.33204 c 4.8115,-16.27784 1.3067,-37.70232 1.334,-54.66602 0.021,-13.00179 4.8751,-25.83016 18.666,-29.81641 5.8509,-1.69116 12.6355,-0.84961 18.668,-0.84961 z m -559.7344,0.95703 c -3.9134,-0.22452 -8.2343,0.37695 -10.9336,0.37695 v 49.33204 c 0,17.6984 -1.0823,41.59545 18.668,49.64843 4.8295,1.96916 10.2552,2.80745 15.4336,3.23828 5.3617,0.44605 11.5033,-0.57812 16.5664,-2.36328 7.3335,-2.58561 11.5174,-8.50545 17.332,-13.18945 l 1.334,14.66602 h 17.334 v -33.33204 -68 h -20 c 0.01,12.45769 1.332,24.82048 1.332,37.33204 0,12.30875 1.329,26.69702 -6.1972,37.32812 -9.4783,13.38745 -31.5967,16.90693 -39.7051,0.004 -2.7553,-5.74397 -2.0977,-12.48121 -2.0977,-18.66407 v -34.66796 c 0,-5.30339 1.0739,-12.03467 -0.5781,-17.13477 -1.0688,-3.29944 -4.5749,-4.3497 -8.4883,-4.57422 z m -242.9336,0.37695 v 49.33204 c 0,10.24593 -0.9354,20.7972 2.334,30.66796 6.8503,20.68221 32.1705,27.69897 50.998,18.48047 5.7124,-2.79688 8.8917,-7.5743 13.336,-11.81445 l 1.332,14.66602 18.668,-1.33204 -1.334,-38.66796 v -61.33204 h -18.666 V 888 c 0,9.95133 0.6367,20.16439 -4,29.33398 -7.2246,14.2876 -27.0511,20.12696 -38.1406,6.60743 -5.7814,-7.04842 -5.8454,-17.90593 -5.8594,-26.60743 v -52 z m 630.668,0 V 896 c 0,10.31917 -1.0342,20.85986 2.7578,30.66602 7.1932,18.60156 29.8822,25.94393 47.9082,18.40234 6.798,-2.84407 11.2358,-7.66374 16,-13.06836 l 1.334,14.66602 H 2184 V 845.33398 h -20 v 44 c 0,9.23601 0.7218,19.48479 -3.584,28 -7.1975,14.23389 -27.5746,19.97185 -38.5566,6.60743 C 2115.4952,916.19653 2116,905.4305 2116,896 v -50.66602 z m 525.332,0 v 100 h 18.668 v -100 z m 182.668,0 -18.6309,2.13672 -0.037,25.86328 v 72 h 18.668 z m -480.6426,12.3379 c 4.6504,-0.0411 9.4362,1.33401 13.9551,4.53124 4.3792,3.09857 15.2279,16.37916 8.5449,21.75977 -3.7799,3.04338 -10.8976,0.45036 -15.1914,0.15625 -11.3018,-0.77392 -23.5302,-0.85246 -34.666,1.21484 0.672,-14.66699 13.4063,-27.53878 27.3574,-27.6621 z m -695.7969,1.10156 c 35.7803,-0.74316 39.7604,68.58129 4.4395,72.98047 -40.7835,5.07951 -46.2238,-67.22437 -8,-72.68555 1.2201,-0.17432 2.4063,-0.27095 3.5605,-0.29492 z M 453.23828,1136.8574 c -0.0161,0.04 -0.0326,0.079 -0.0488,0.1192 0.0101,2e-4 0.0201,10e-4 0.0293,0 0.007,-0.04 0.0131,-0.079 0.0195,-0.1192 z" />
    <path
       style="fill:#c2181c;fill-opacity:1;stroke-width:0.353791"
       d="m 1814.7785,925.25202 c 0.01,-18.84877 -0.1325,-24.2931 -1.2843,-50.25126 -0.7104,-16.01173 -1.2234,-29.18048 -1.14,-29.26388 0.1344,-0.13441 12.8961,1.30815 15.7228,1.77729 l 1.1002,0.18257 0.6458,6.18464 c 0.3552,3.40155 0.7613,6.18464 0.9024,6.18464 0.3521,0 3.3178,-2.36584 7.7497,-6.1823 2.0432,-1.75939 4.5109,-3.77545 5.4838,-4.48013 4.469,-3.23686 10.3006,-5.25092 17.2438,-5.95553 4.0454,-0.41054 9.9807,0.13186 15.3711,1.4047 12.6287,2.98206 20.4401,11.9283 23.4453,26.85155 1.2945,6.42855 1.5319,10.32276 1.4042,23.03323 -0.1481,14.74061 -0.1561,21.28807 -0.041,33.68029 0.083,8.9599 -0.095,11.67157 -1.0575,16.1158 l -0.4022,1.8574 h -8.5625 -8.5624 l -0.2815,-2.21119 c -0.1548,-1.21616 -0.3224,-12.24117 -0.3725,-24.50003 -0.05,-12.25886 -0.2601,-26.82621 -0.4666,-32.37188 -0.5299,-14.23147 -1.2654,-16.75381 -6.4073,-21.97441 -4.4373,-4.50521 -9.1837,-6.2644 -15.8536,-5.87598 -10.994,0.64023 -21.0983,8.34303 -24.467,18.65182 -1.6868,5.16224 -1.7762,7.07467 -1.7784,38.05563 v 29.03396 l -8.7564,0.60457 c -4.8159,0.33251 -8.9553,0.60073 -9.1985,0.59604 -0.3489,-0.007 -0.4407,-4.47272 -0.4349,-21.14754 z"
       id="path28" />
    <path
       style="fill:#c2181c;fill-opacity:1;stroke-width:0.353791"
       d="m 1731.0996,947.21836 c -9.643,-1.16321 -15.6404,-3.25943 -20.5199,-7.17214 -5.2844,-4.23737 -8.876,-11.28228 -10.4604,-20.51775 -1.1548,-6.73203 -1.3852,-14.1379 -1.3885,-44.64128 v -29.2258 l 2.1746,-0.2273 c 4.1152,-0.43012 10.3274,-0.25879 12.3453,0.34047 2.4138,0.71683 4.3501,2.57338 4.956,4.75193 0.3369,1.21127 0.4214,8.62725 0.3627,31.82836 -0.066,26.21262 0,30.60322 0.4744,32.90257 1.6216,7.81158 7.5011,14.02415 14.9293,15.77507 3.218,0.75853 8.5646,0.50295 11.9888,-0.57311 9.1702,-2.88176 15.502,-9.10757 18.5266,-18.21657 2.0569,-6.19436 2.3532,-9.39472 2.2927,-24.75799 -0.03,-7.58881 -0.3085,-18.48898 -0.6191,-24.22258 -0.3107,-5.7336 -0.5648,-12.06204 -0.5648,-14.06319 v -3.63846 h 9.7292 9.7293 v 50.41522 50.41522 h -8.4406 -8.4406 l -0.2076,-2.0343 c -0.1143,-1.11886 -0.405,-4.38258 -0.6462,-7.25271 -0.2411,-2.87013 -0.541,-5.21842 -0.6664,-5.21842 -0.1255,0 -2.5226,2.07962 -5.327,4.62136 -6.9228,6.27452 -9.1441,7.69269 -14.4464,9.22358 -4.9111,1.41794 -11.3356,2.02373 -15.7783,1.48782 z"
       id="path29" />
    <path
       style="fill:#c2181c;fill-opacity:1;stroke-width:0.353791"
       d="m 1588.6987,987.06964 c -4.5728,-0.33887 -8.3539,-0.63505 -8.4026,-0.65818 -0.049,-0.0231 -0.091,-12.65911 -0.095,-28.07998 0,-15.42087 -0.314,-47.05778 -0.6898,-70.30425 -0.3758,-23.24647 -0.6349,-42.31462 -0.5759,-42.37365 0.1368,-0.13681 17.8987,1.91002 18.0711,2.08247 0.071,0.0707 0.3866,2.51567 0.7019,5.43324 0.6476,5.99079 0.8019,6.90043 1.1685,6.88786 0.1422,-0.005 2.7263,-2.16264 5.7424,-4.79504 7.7078,-6.72733 11.1732,-8.91037 16.2207,-10.2183 5.6477,-1.46348 17.5096,-1.2988 23.9398,0.33235 15.8113,4.01086 27.794,18.67116 31.5262,38.57075 1.0312,5.49814 0.9485,18.35519 -0.1532,23.8221 -3.858,19.14469 -14.5725,32.50312 -30.2277,37.68684 -9.5118,3.14953 -20.5196,2.56078 -29.1,-1.55642 -3.1257,-1.49978 -6.1294,-3.56549 -11.6738,-8.02818 -2.7235,-2.19211 -5.0718,-3.98565 -5.2184,-3.98565 -0.1467,0 -0.2667,12.57727 -0.2667,27.94949 v 27.94949 l -1.3267,-0.0494 c -0.7297,-0.0272 -5.0681,-0.32667 -9.6408,-0.66555 z m 44.8174,-55.20917 c 5.9335,-0.8124 10.1001,-2.89961 14.436,-7.23155 3.1581,-3.15519 5.1146,-6.21745 7.0129,-10.97634 3.5329,-8.85654 3.981,-21.41487 1.1231,-31.47462 -1.156,-4.06902 -4.6193,-11.04056 -6.8904,-13.87012 -4.9725,-6.19517 -11.9907,-9.63446 -19.6935,-9.65084 -9.0459,-0.0193 -17.1495,3.92063 -22.4673,10.92344 -8.9109,11.73427 -10.2213,31.48531 -3.0422,45.85388 6.0897,12.18811 16.8295,18.16391 29.5214,16.42615 z"
       id="path30" />
    <path
       style="fill:#c2181c;fill-opacity:1;stroke-width:0.353791"
       d="m 1495.1653,946.90266 c -14.2566,-2.83275 -24.139,-12.28809 -27.1202,-25.94838 -1.1887,-5.44682 -1.3268,-10.72823 -1.1371,-43.46405 l 0.1852,-31.92964 h 8.9427 8.9427 l 0.1729,31.22206 c 0.1136,20.53676 0.3076,32.00907 0.5667,33.5217 1.2755,7.44639 3.1669,11.67197 6.8734,15.35606 4.2126,4.18709 8.6119,5.98997 14.5582,5.9661 11.9625,-0.048 22.2042,-8.97833 25.062,-21.85285 1.1312,-5.0963 1.2955,-9.7893 1.2955,-37.00865 v -27.20442 h 9.1985 9.1986 l 0.026,33.16791 c 0.019,23.69269 0.1958,37.92462 0.6192,49.81875 l 0.5927,16.65084 -8.9692,0.61949 c -4.933,0.34073 -9.0658,0.52287 -9.1839,0.40477 -0.1181,-0.1181 -0.5015,-3.34071 -0.8521,-7.16135 -0.3505,-3.82065 -0.7161,-7.02538 -0.8123,-7.12163 -0.096,-0.0963 -1.9553,1.69988 -4.1311,3.99139 -2.1759,2.29152 -5.0436,4.93008 -6.3727,5.86347 -3.0409,2.13554 -7.6859,4.00815 -12.2486,4.93796 -4.181,0.85204 -11.566,0.93375 -15.4075,0.17047 z"
       id="path31" />
    <path
       style="fill:#c2181c;fill-opacity:1;stroke-width:0.353791"
       d="m 1402.9097,947.42696 c -14.5732,-2.14053 -26.1089,-10.5173 -32.9634,-23.93671 -4.8212,-9.43871 -6.9362,-19.37982 -6.4937,-30.52166 0.5665,-14.26035 5.39,-26.38716 13.975,-35.13437 8.2794,-8.43583 18.1837,-13.09439 30.6607,-14.4215 12.2824,-1.3064 29.0809,2.95032 35.4992,8.99544 1.72,1.62005 2.8872,4.11383 2.8872,6.16897 0,1.73283 -0.9698,4.97806 -2.5595,8.56471 -0.4744,1.07022 -0.965,2.2293 -1.0904,2.57574 -0.2158,0.59651 -0.3018,0.59216 -1.6234,-0.0821 -0.7676,-0.39158 -3.2656,-1.8413 -5.5511,-3.2216 -10.9128,-6.59067 -17.2118,-8.46741 -24.9085,-7.42131 -13.2811,1.80511 -22.631,11.42681 -26.2803,27.04419 -0.6286,2.68989 -0.7531,4.34739 -0.76,10.11593 -0.01,6.30916 0.072,7.21649 0.9295,10.61373 2.9357,11.62865 9.4445,19.77067 18.5505,23.20547 7.138,2.69246 14.6199,2.542 22.2426,-0.44729 3.5082,-1.37577 4.7838,-2.03926 11.9585,-6.22042 2.7881,-1.62483 5.0077,-2.70897 5.1742,-2.52732 0.3339,0.36422 4.9792,14.25353 4.9792,14.88764 0,0.54888 -8.6381,4.90285 -13.7978,6.95465 -5.3898,2.14329 -11.7884,3.95585 -16.3625,4.63503 -3.914,0.58118 -11.101,0.66701 -14.466,0.17276 z"
       id="path32" />
    <path
       style="fill:#c2181c;fill-opacity:1;stroke-width:0.353791"
       d="m 1339.6449,946.36592 c -4.7833,-0.85215 -8.1387,-3.56705 -10.5366,-8.52514 -0.7842,-1.62137 -2.335,-5.81366 -3.4463,-9.31619 -2.5287,-7.96993 -4.1562,-11.1953 -6.9575,-13.78889 -3.3277,-3.08081 -4.0541,-3.21703 -16.3997,-3.07527 -6.0987,0.07 -15.6646,-0.12375 -23.5856,-0.4778 -7.3291,-0.3276 -16.0854,-0.52945 -19.4585,-0.44858 -7.5779,0.1817 -9.2791,0.70385 -12.3315,3.78488 -2.64,2.66488 -4.0855,5.59634 -7.0413,14.27967 -1.3742,4.03684 -3.0609,8.45649 -3.7483,9.82146 -2.208,4.38467 -4.7551,6.48432 -8.9443,7.37318 -2.6918,0.57112 -13.5168,0.53551 -13.5099,-0.0444 0.012,-1.01314 1.1636,-5.32715 2.5262,-9.46293 1.9653,-5.96531 4.3326,-11.50141 9.684,-22.64617 5.302,-11.0421 10.2361,-22.05311 16.3281,-36.43791 9.786,-23.10721 17.1476,-41.22239 19.4094,-47.76179 4.2226,-12.20867 7.0848,-18.07473 10.6144,-21.75474 2.7777,-2.89593 4.2687,-3.53138 8.2992,-3.5368 5.549,-0.007 9.3914,1.79783 12.8534,6.03904 2.1632,2.65005 5.3169,9.10567 7.6769,15.71459 2.4053,6.73562 4.8572,12.39111 19.0967,44.04698 6.5646,14.59388 13.6399,30.43488 15.7229,35.20221 2.0829,4.76734 5.6774,12.56843 7.9877,17.33576 2.3102,4.76734 4.9228,10.46912 5.8056,12.67063 1.6705,4.16574 3.582,10.59942 3.2484,10.93308 -0.359,0.35898 -11.3514,0.42115 -13.2934,0.0752 z m -29.0699,-52.6013 c -0.209,-0.53511 -2.2771,-5.98792 -4.5957,-12.11735 -3.7274,-9.85348 -22.7657,-53.76601 -23.3137,-53.7737 -0.099,-10e-4 -2.5964,5.13186 -5.5489,11.40723 -4.9694,10.56197 -7.7788,17.40727 -21.3447,52.00728 l -1.3525,3.44946 h 28.2678 28.2679 z"
       id="path33" />
    <path
       style="fill:#c2181c;fill-opacity:1;stroke-width:0.353791"
       d="m 1963.7172,947.56979 c -8.5608,-1.35549 -14.6278,-3.74984 -20.9806,-8.28 -17.7128,-12.63085 -24.6701,-38.66797 -16.6983,-62.49141 5.0971,-15.23231 16.061,-26.82104 29.6818,-31.3732 9.434,-3.15292 20.352,-3.47962 30.5516,-0.91419 6.9238,1.74146 12.0572,4.31926 15.8286,7.94852 3.8247,3.68043 5.1358,7.62732 3.5954,10.82318 -0.8422,1.74724 -3.2741,4.12571 -4.4919,4.39319 -1.7386,0.38185 -5.1304,-0.88101 -10.6884,-3.97958 -6.9832,-3.89317 -8.9129,-4.43305 -16.0076,-4.4785 -6.1219,-0.0392 -8.4098,0.422 -13.2665,2.67436 -12.185,5.651 -18.9808,18.64673 -18.2857,34.96813 0.4888,11.47871 4.3894,20.66696 11.6611,27.46933 5.7418,5.37116 12.7825,7.85585 21.185,7.4763 6.3771,-0.28806 10.9205,-2.0609 21.5789,-8.42004 l 5.2207,-3.11483 2.5725,7.74442 c 2.5219,7.59205 2.5588,7.7549 1.8739,8.27774 -1.2869,0.98233 -11.2745,5.81937 -14.6446,7.09246 -4.3771,1.65346 -10.3182,3.22179 -14.7112,3.88347 -3.197,0.48155 -11.6797,0.66404 -13.9747,0.30065 z"
       id="path34" />
    <path
       style="fill:#c2181c;fill-opacity:1;stroke-width:0.353791"
       d="m 2056.3446,946.01822 c -8.1845,-1.2355 -13.758,-4.69621 -17.9806,-11.16455 -4.8232,-7.38837 -6.546,-17.26632 -5.6767,-32.54735 1.0964,-19.2747 0.8075,-33.22554 -0.7704,-37.19887 -0.6627,-1.66876 -1.0692,-2.16804 -2.3323,-2.86459 -1.337,-0.73723 -2.1886,-0.87485 -6.7553,-1.09163 -5.8345,-0.27696 -7.0542,-0.68839 -8.2842,-2.79446 -0.8694,-1.48864 -1.1588,-5.11649 -0.5955,-7.46464 0.8839,-3.6847 3.2628,-4.97775 9.1577,-4.97775 4.9209,0 8.02,-1.51865 9.6784,-4.74268 0.9481,-1.84315 0.9936,-5.19181 0.1474,-10.84833 -0.642,-4.29165 -0.4921,-6.2432 0.6493,-8.45039 0.673,-1.3013 2.665,-3.01086 4.7244,-4.05445 2.7966,-1.41712 4.8142,-1.89265 12.1776,-2.87002 l 1.3267,-0.17611 v 15.42391 15.42392 l 3.9802,-0.29517 c 2.1891,-0.16234 7.0051,-0.29516 10.7022,-0.29516 7.4683,0 9.5033,0.40185 11.2454,2.22065 2.2985,2.3997 2.8993,7.40416 1.2692,10.57174 -1.5811,3.07249 -4.193,3.75256 -11.3484,2.95487 -5.458,-0.60846 -10.0602,-0.57729 -11.6031,0.0786 -3.4171,1.45263 -4.7447,4.92211 -4.707,12.30056 0.1415,27.64174 0.3788,38.18441 0.9238,41.03976 1.9165,10.04064 6.4256,15.57521 13.9968,17.18 3.5086,0.74369 6.9021,0.63359 11.5705,-0.37537 0.6524,-0.14101 0.8064,0.14341 1.3945,2.57439 0.9803,4.05244 0.9091,7.64123 -0.1905,9.60222 -1.5898,2.83515 -2.3519,3.02825 -12.1974,3.09073 -4.6701,0.0296 -9.3963,-0.0828 -10.5027,-0.2498 z"
       id="path35" />
    <path
       style="fill:#c2181c;fill-opacity:1;stroke-width:0.353791"
       d="m 2127.7293,947.43822 c -8.0101,-1.25835 -15.6506,-5.1225 -20.7971,-10.51808 -4.2219,-4.42615 -6.9072,-9.6751 -8.4704,-16.55686 -0.795,-3.49988 -0.7987,-3.65499 -0.9192,-39.15825 l -0.121,-35.64444 h 9.1972 9.1973 l 0.1234,32.28343 c 0.1208,31.58976 0.1399,32.35565 0.8886,35.64445 1.1524,5.06269 3.1383,8.7899 6.4154,12.0408 4.3475,4.31267 8.4485,6.00254 14.5673,6.00254 11.903,0 22.133,-8.37742 25.0576,-20.51988 1.2264,-5.09179 1.4483,-11.03516 1.4483,-38.7915 v -26.65984 h 9.7292 9.7293 v 50.41522 50.41522 h -9.1986 c -8.5254,0 -9.1984,-0.0453 -9.1965,-0.61913 0,-1.09512 -1.1622,-13.70452 -1.2799,-13.84501 -0.062,-0.0746 -1.632,1.46126 -3.4878,3.41299 -6.0201,6.33135 -10.9917,9.43151 -18.0539,11.25784 -3.9647,1.02532 -11.0841,1.42883 -14.8292,0.8405 z"
       id="path36" />
    <path
       style="fill:#c2181c;fill-opacity:1;stroke-width:0.353791"
       d="m 2219.5965,945.7549 -7.518,-0.54579 0.012,-1.62023 c 0.01,-0.89113 -0.2645,-23.22677 -0.6023,-49.63475 -0.3378,-26.40798 -0.535,-48.0937 -0.4382,-48.19048 0.2768,-0.27684 16.2488,1.78132 16.5637,2.13441 0.1549,0.17378 0.5592,2.94286 0.8984,6.15351 0.3392,3.21066 0.6771,5.90004 0.7509,5.97642 0.1637,0.16939 -0.5222,0.70243 8.6089,-6.68999 l 7.5731,-6.13107 10.6472,-1.33664 c 5.8559,-0.73515 11.1645,-1.41398 11.7969,-1.50851 l 1.1498,-0.17187 v 8.43564 8.43564 l -8.2256,0.14531 c -7.7386,0.13671 -8.3932,0.20077 -11.056,1.08193 -9.7941,3.24112 -15.692,11.04531 -17.4885,23.14142 -0.5307,3.57276 -0.4707,10.91856 0.1899,23.27548 0.7255,13.57219 0.5248,25.45835 -0.5289,31.31746 -1.1611,6.45597 -1.0272,6.18396 -3.07,6.23462 -0.9598,0.0238 -5.1282,-0.20233 -9.2632,-0.50251 z"
       id="path37" />
    <path
       style="fill:#c2181c;fill-opacity:1;stroke-width:0.353791"
       d="m 2316.4468,947.09146 c -10.393,-1.83978 -18.6946,-6.16336 -25.3654,-13.21067 -16.6076,-17.54471 -18.9287,-49.61621 -5.1235,-70.7926 2.1704,-3.32928 8.4113,-9.52322 11.9149,-11.82533 8.2536,-5.42311 17.5867,-8.25514 27.2419,-8.26624 7.6036,-0.009 13.431,1.36595 19.9892,4.71546 9.1913,4.69429 15.7486,12.68814 19.2992,23.5272 1.9874,6.06711 3.3434,14.83779 3.3434,21.62525 v 3.00509 l -32.8141,-0.0968 c -30.7723,-0.0908 -32.9074,-0.0577 -34.3132,0.53195 -1.8807,0.78879 -3.5232,2.62882 -3.8362,4.29759 -0.8265,4.40526 2.7528,14.78677 6.8824,19.96195 4.4331,5.55562 11.121,9.55473 18.0883,10.81621 7.8649,1.42398 14.7695,-0.0698 30.2391,-6.54222 4.5129,-1.88819 7.8268,-3.09111 7.953,-2.88689 0.119,0.19254 1.3113,3.38591 2.6495,7.09637 2.3536,6.52543 2.4111,6.7632 1.7579,7.26254 -1.3351,1.02069 -11.3618,5.81642 -14.8075,7.08236 -4.5427,1.66902 -10.4645,3.21082 -14.8996,3.87929 -4.9054,0.73935 -13.4836,0.65428 -18.1993,-0.18049 z m -13.088,-62.49363 c 3.4594,-0.48299 6.8811,-0.61626 15.7415,-0.61312 10.0881,0.004 11.8801,0.0928 16.4513,0.8194 7.9926,1.27039 11.0733,0.77044 13.0303,-2.11459 0.7212,-1.06318 0.8115,-1.55859 0.7063,-3.87258 -0.098,-2.16238 -0.3554,-3.14448 -1.3895,-5.30686 -1.5705,-3.28436 -5.0066,-7.88311 -7.6512,-10.24021 -2.4128,-2.1505 -6.8151,-4.38866 -10.1797,-5.17541 -3.5806,-0.83726 -9.3666,-0.52437 -12.8677,0.69584 -7.371,2.56897 -13.5367,8.09287 -17.0438,15.26956 -1.5686,3.20984 -2.8142,7.62796 -2.8142,9.982 0,1.45676 0.059,1.55892 0.7983,1.37346 0.4391,-0.11019 2.7873,-0.47806 5.2184,-0.81749 z"
       id="path38" />
    <path
       style="fill:#c2181c;fill-opacity:1;stroke-width:0.353791"
       d="m 2496.7034,947.74409 c -12.189,-1.22722 -23.8785,-5.53831 -32.433,-11.96131 -13.9511,-10.47503 -23.027,-26.85252 -26.1769,-47.23658 -1.0138,-6.56104 -1.0946,-18.42098 -0.1686,-24.76537 3.3063,-22.65268 13.5655,-40.53035 29.2507,-50.97243 17.9397,-11.94293 44.7924,-13.39019 67.0272,-3.61251 10.9343,4.80832 15.3567,8.42556 15.3846,12.58341 0.012,1.84608 -1.3131,5.28791 -3.4358,8.92206 -1.0797,1.84856 -2.0247,3.4318 -2.1,3.51832 -0.2598,0.29854 -4.2015,-1.82923 -9.2143,-4.97406 -11.0321,-6.92097 -17.2456,-9.00139 -28.0861,-9.40385 -5.8648,-0.21774 -9.3322,0.1101 -14.2322,1.34559 -21.1947,5.34414 -34.9251,26.02393 -34.9066,52.57412 0.01,13.36863 3.8077,26.49572 10.6836,36.92204 2.6462,4.01257 8.926,10.44303 12.4868,12.78644 4.835,3.18195 10.0319,5.36699 15.9206,6.69375 1.3754,0.3099 4.4892,0.47921 8.8447,0.48095 5.7584,0.002 7.2505,-0.11563 10.4081,-0.8225 6.9505,-1.55596 11.1211,-3.4185 19.0041,-8.48702 2.6981,-1.73478 5.7732,-3.59195 6.8337,-4.12705 l 1.9281,-0.9729 0.8354,1.01473 c 1.53,1.85851 3.9906,6.29754 4.5527,8.21318 0.364,1.24064 0.474,2.43167 0.3197,3.46098 -0.3395,2.26351 -2.7228,5.54671 -5.6839,7.82999 -2.9618,2.28376 -10.2743,5.94358 -15.3577,7.68628 -9.0864,3.11507 -21.1085,4.3686 -31.6849,3.30374 z"
       id="path39" />
    <path
       style="fill:#c2181c;fill-opacity:1;stroke-width:0.353791"
       d="m 2574.7073,943.29536 c 0,-1.70262 -0.2395,-10.81716 -0.5237,-20.25454 -0.5545,-18.41243 -0.78,-122.7623 -0.2653,-122.76888 1.1221,-0.0143 16.6913,1.8733 17.2385,2.09003 0.604,0.23921 0.7815,0.94507 1.3075,5.19797 0.5553,4.49015 0.6103,10.73341 0.6279,71.2801 l 0.019,66.35891 -8.7563,0.60457 c -4.816,0.33251 -8.9553,0.60073 -9.1986,0.59604 -0.3189,-0.006 -0.4441,-0.87187 -0.4492,-3.1042 z"
       id="path40" />
    <path
       style="fill:#c2181c;fill-opacity:1;stroke-width:0.353791"
       d="m 2622.8299,895.44512 v -49.88453 h 9.1985 9.1986 v 49.88453 49.88454 h -9.1986 -9.1985 z"
       id="path41" />
    <path
       style="fill:#c2181c;fill-opacity:1;stroke-width:0.353791"
       d="m 2630.4019,822.62854 -8.8792,-0.90404 -0.4115,-6.21375 c -0.2263,-3.41756 -0.5137,-8.00481 -0.6387,-10.19389 l -0.2273,-3.98015 h 11.1985 11.1985 v 11.14441 11.14442 l -1.6805,-0.0465 c -0.9243,-0.0256 -5.6762,-0.4533 -10.5598,-0.95052 z"
       id="path42" />
    <path
       style="fill:#c2181c;fill-opacity:1;stroke-width:0.353791"
       d="m 2670.8141,940.99572 c -0.2643,-6.9279 -1.357,-95.12608 -1.1807,-95.30236 0.1616,-0.1616 16.4971,1.84405 16.7039,2.05089 0.081,0.0805 0.4243,2.73031 0.764,5.88838 0.3396,3.15807 0.7289,5.92224 0.8651,6.14259 0.1552,0.25111 1.8194,-1.03942 4.4587,-3.45753 8.8955,-8.1499 13.214,-10.57805 22.0367,-12.39042 9.4042,-1.93185 20.5703,-0.19583 28.0791,4.36551 6.4399,3.91202 11.7663,11.69322 13.9925,20.44112 2.1803,8.56775 2.6457,15.13626 2.3314,32.90257 -0.1377,7.7834 -0.2751,19.88305 -0.3054,26.88812 -0.048,11.09022 -0.1396,13.07277 -0.7088,15.33832 l -0.6536,2.60184 -6.7737,-0.1386 c -5.9733,-0.12221 -6.9697,-0.22757 -8.4319,-0.89153 -3.1226,-1.41795 -4.0702,-5.24361 -3.4713,-14.01394 0.4707,-6.89316 0.4545,-48.80736 -0.02,-52.59449 -0.4971,-3.96394 -1.4822,-6.76149 -3.3945,-9.64003 -4.2456,-6.3907 -11.2414,-9.82456 -19.0515,-9.35132 -4.151,0.25153 -6.7176,0.94524 -10.6137,2.86865 -7.0431,3.47701 -12.0568,9.30752 -14.3126,16.64414 -1.7996,5.853 -1.8715,7.19188 -2.045,38.12099 l -0.1622,28.92241 h -8.9502 -8.9501 z"
       id="path43" />
    <path
       style="fill:#c2181c;fill-opacity:1;stroke-width:0.353791"
       d="M 2786.9889,896.52253 V 847.7154 l 1.1498,-0.19033 c 0.9949,-0.16467 16.3348,-1.96448 16.7434,-1.96448 0.083,0 0.1502,22.44804 0.1502,49.88453 v 49.88454 h -9.0217 -9.0217 z"
       id="path44" />
    <path
       style="fill:#c2181c;fill-opacity:1;stroke-width:0.353791"
       d="m 2789.3478,823.82584 c -0.9403,-0.25274 -2.1344,-0.76769 -2.6534,-1.14433 -3.6933,-2.67999 -4.1645,-14.45057 -0.7693,-19.21867 0.7735,-1.08624 2.9126,-1.96235 5.7231,-2.34398 0.9087,-0.12338 4.6102,-0.10758 8.2257,0.0351 l 6.5735,0.25945 v 11.22859 11.22858 l -4.301,0.23127 c -6.3371,0.34074 -10.8674,0.24304 -12.7986,-0.27602 z"
       id="path45" />
    <path
       style="fill:#c2181c;fill-opacity:1;stroke-width:0.353791"
       d="m 2869.0684,946.91996 c -12.0928,-1.65339 -20.0308,-5.60628 -27.5245,-13.70633 -2.7368,-2.95833 -5.6469,-7.38307 -7.684,-11.68346 -10.1093,-21.34084 -6.2754,-49.44784 8.7846,-64.40258 11.9829,-11.89902 31.5025,-16.85874 48.9608,-12.4404 7.08,1.79183 13.1316,4.79868 22.5213,11.19011 0.475,0.32334 -1.9429,6.26035 -3.5128,8.6255 -1.5421,2.32333 -3.0922,3.34662 -5.0696,3.34662 -1.918,0 -3.2291,-0.57299 -7.2062,-3.14935 -3.8965,-2.52417 -6.3436,-3.65017 -10.2644,-4.72295 -2.4509,-0.67061 -3.7968,-0.79558 -8.5683,-0.79558 -4.9506,0 -5.992,0.10403 -8.3016,0.82929 -14.2989,4.49 -23.0089,17.76973 -23.0089,35.0805 0,13.83335 5.7601,25.67763 15.659,32.19895 5.1242,3.37577 11.8666,5.30897 16.607,4.76163 5.2906,-0.61085 8.1397,-1.58069 17.4416,-5.93719 5.4202,-2.53852 11.0131,-4.74122 11.2989,-4.44992 0.074,0.0758 1.2737,2.98977 2.6652,6.47557 l 2.5302,6.33781 -0.9944,0.79897 c -2.1401,1.71946 -10.224,6.3234 -13.6607,7.77998 -9.093,3.85395 -20.3602,5.27288 -30.6732,3.86283 z"
       id="path46" />
  </g>
</svg>
