<?xml version="1.0" encoding="UTF-8" standalone="no"?>
<!-- Created with Inkscape (http://www.inkscape.org/) -->

<svg
   version="1.1"
   id="svg1"
   width="811.21143"
   height="1082.2898"
   viewBox="0 0 811.21143 1082.2898"
   sodipodi:docname="favicon.svg"
   inkscape:version="1.4.2 (ebf0e940, 2025-05-08)"
   xmlns:inkscape="http://www.inkscape.org/namespaces/inkscape"
   xmlns:sodipodi="http://sodipodi.sourceforge.net/DTD/sodipodi-0.dtd"
   xmlns="http://www.w3.org/2000/svg"
   xmlns:svg="http://www.w3.org/2000/svg">
  <defs
     id="defs1">
    <clipPath
       clipPathUnits="userSpaceOnUse"
       id="clipPath1">
      <rect
         style="opacity:0;fill:#c2181c"
         id="rect2"
         width="857.35291"
         height="1135.9926"
         x="23.815359"
         y="19.052286" />
    </clipPath>
  </defs>
  <sodipodi:namedview
     id="namedview1"
     pagecolor="#ffffff"
     bordercolor="#999999"
     borderopacity="1"
     inkscape:showpageshadow="2"
     inkscape:pageopacity="0"
     inkscape:pagecheckerboard="0"
     inkscape:deskcolor="#d1d1d1"
     inkscape:zoom="0.27709325"
     inkscape:cx="730.80092"
     inkscape:cy="436.6761"
     inkscape:window-width="1512"
     inkscape:window-height="917"
     inkscape:window-x="0"
     inkscape:window-y="65"
     inkscape:window-maximized="0"
     inkscape:current-layer="g1" />
  <g
     inkscape:groupmode="layer"
     inkscape:label="Image"
     id="g1"
     transform="translate(-69.956828,-54.687341)">
    <path
       id="path27"
       style="fill:#1d0808;stroke:none"
       d="m 452.46875,54.689453 c -2.19997,-0.03173 -4.57387,0.29319 -7.13477,1.029297 -22.44262,6.451009 -24.2631,38.472435 -22.4414,57.61523 0.87231,9.16651 2.14721,17.91814 5.11328,26.66602 1.94934,5.74935 5.72358,11.28499 6.48437,17.33398 2.11389,16.80786 0.17579,35.05493 0.17579,52 V 312 462.66602 c 0,25.20166 -1.3844,50.84326 0.0586,76 0.59392,10.35473 7.65535,18.62548 7.92187,29.33398 2.36739,95.12537 0.37656,190.22331 2.70704,285.33398 2.12883,86.88025 3.73066,173.81022 3.95312,260.80082 0.29414,0.019 0.61508,0.2232 0.85547,0.6543 0.04,-0.01 0.0798,-0.015 0.11914,-0.018 0.13768,-0.01 0.26941,0.019 0.38477,0.082 v -0.1875 H 452 v 0.3672 c 0.21959,-0.2249 0.48733,-0.3296 0.75,-0.3184 0.20649,0.01 0.40973,0.09 0.58398,0.2422 v -37.623 c 0,-27.1575 1.33204,-54.2569 1.33204,-81.334 0,-23.39274 -1.47888,-47.33089 0.11914,-70.66602 1.97522,-28.84326 0.52567,-57.74511 1.23437,-86.66796 1.7524,-71.51701 1.8001,-143.02938 2.65235,-214.66602 0.2423,-20.36776 -0.5472,-42.38725 1.46874,-62.66602 0.66058,-6.64477 4.90943,-11.87573 5.16797,-18.66796 2.99154,-78.58928 0.0254,-157.37801 0.0254,-236 V 212 c 0,-16.31966 -1.08116,-33.05949 0.11914,-49.33398 0.61728,-8.36939 5.33777,-14.87582 7.8418,-22.66602 3.51937,-10.94897 5.33415,-23.17749 5.3711,-34.66602 0.0538,-16.747307 -4.93092,-50.337834 -26.19727,-50.644527 z m -1.75586,15.482422 c 6.44243,-0.09956 9.96678,10.281738 11.30078,15.162109 3.96163,14.493327 2.53309,30.967696 -1.18359,45.332036 -1.24239,4.80159 -3.2395,13.60758 -8.95117,14.99804 -7.66069,1.86499 -11.1038,-11.1403 -12.33985,-16.33008 -3.38993,-14.23323 -4.20227,-31.20247 0.16016,-45.33398 1.44645,-4.685628 4.23824,-12.4139 9.6875,-13.664062 0.45566,-0.104541 0.89668,-0.157426 1.32617,-0.164063 z M 422.66602,230.66602 c -12.59253,3.00618 -25.89148,3.59725 -38.66602,5.90039 -21.42167,3.86214 -42.20463,9.36084 -62.66602,16.83789 C 227.19225,287.80583 147.52138,360.76017 105.74414,452 79.336561,509.6731 66.441965,575.24308 70.785156,638.66602 77.448959,735.9764 123.42979,830.45948 196,895.77344 c 34.86438,31.37826 75.28792,55.49112 118.66602,72.82617 37.66939,15.05363 79.27937,24.73437 120,24.73437 l -1.33204,-142.66796 c -7.59814,-1.35531 -14.00301,-5.45313 -19.99609,-10.22461 C 378.39156,812.618 387.5553,750.41227 432,737.33398 L 430.66602,616 c -24.3831,0.20182 -50.01746,10.6178 -70.66602,22.93359 -68.03143,40.57723 -102.71912,121.11393 -84.46094,198.40039 11.65458,49.33358 44.82062,94.12395 89.79492,118.01368 14.43596,7.66813 29.69157,12.21403 45.33204,16.65234 v 1.33398 C 387.09709,967.70711 363.24101,965.19619 340,957.67188 287.96822,940.82641 241.24896,911.72834 201.33398,874.54688 132.08824,810.04314 92.16692,716.62223 88.052734,622.66602 84.216278,535.05225 119.19747,440.96305 177.56055,376 c 50.66313,-56.39233 113.862,-97.69011 187.77343,-116.16797 13.62354,-3.40593 27.48788,-5.65161 41.33204,-7.93945 4.10726,-0.6788 13.19954,0.12606 15.96289,-3.36328 3.2539,-4.10881 1.3708,-13.35148 0.0371,-17.86328 z M 477.33398,232 v 18.66602 c 19.06169,1.51717 37.73881,8.42642 54.66602,17.00976 103.14791,52.30371 129.49581,194.23755 55.60547,281.6582 -19.52885,23.10482 -44.30745,42.76225 -72.93945,53.26172 -9.95785,3.65157 -20.21058,6.73174 -30.66602,8.58399 -3.78503,0.67058 -10.52792,-0.15756 -12.5293,3.91015 -3.6442,7.40661 -0.80468,22.0634 -0.80468,30.24414 0,20.87415 -1.33204,41.72103 -1.33204,62.66602 0,7.40316 -2.30745,19.48917 0.80469,26.30078 2.54138,5.56233 13.1735,8.88957 17.86133,12.80078 9.86287,8.22909 17.323,19.11312 20.68164,31.56446 7.76327,28.78051 -9.27279,66.40112 -40.68164,72 l -1.33398,142.66796 c 47.18025,0 94.48148,-12.27539 137.33398,-31.59375 48.18677,-21.72314 90.4865,-52.36002 126.54688,-91.07421 51.10743,-54.86857 85.89974,-127.12989 96.88281,-201.33204 C 844.9948,550.663 803.3606,426.02295 718.66602,341.33398 687.22542,309.89551 648.67733,283.50415 608,265.51953 567.53097,247.62703 522.14836,232.12362 477.33398,232 Z m 626.00782,117.99219 c -5.5704,-0.037 -11.1401,0.18903 -16.6758,0.67383 -22.8601,2.00195 -45.5978,9.04256 -65.332,20.80664 -22.99439,13.70752 -39.52394,33.81966 -53.06642,56.52734 -16.55868,27.76506 -23.65626,61.36035 -24.28516,93.33398 -0.82447,41.91744 7.021,85.27657 32.22852,120 13.61702,18.75749 31.17606,35.39617 51.78906,46.23829 10.8178,5.68994 24.7284,7.76041 34.666,14.63085 11.195,7.73983 20.1445,19.1823 30.668,27.84571 24.4124,20.09717 52.626,36.58243 82.666,46.59765 19.793,6.59887 40.4125,11.35352 61.334,11.35352 5.4044,0 16.0318,1.98819 20.5273,-1.57227 3.3448,-2.64917 2.1383,-9.35083 2.1387,-13.09375 -49.0574,0 -92.0835,-32.78702 -117.334,-73.33398 131.5922,-30.16793 151.2411,-220.97982 66.5488,-307.94727 -27.8389,-28.58674 -66.8802,-41.80157 -105.873,-42.06054 z m 1800.9375,2.58008 c -31.2927,-0.59799 -63.2688,13.47137 -77.6231,42.09375 -9.6592,19.26025 -9.3222,40.40169 -9.3222,61.33398 H 2780 v 24 l 25.334,0.002 9.8613,2.13672 2.1387,15.19531 v 40 V 696 h 48 V 480 h 68 v -24 h -68 c 0,-22.57625 -1.1303,-45.35897 11.289,-65.33398 17.988,-28.9314 54.9353,-13.57854 71.377,8 4.3945,-2.73674 12.529,-6.80841 14.1055,-12.11914 1.1133,-3.75041 -2.0202,-7.68759 -4.0254,-10.54493 -5.7484,-8.19157 -13.9545,-14.52523 -23.4141,-17.9375 -9.6008,-3.46319 -19.9558,-5.29286 -30.3867,-5.49218 z m -1158.8242,6.48046 C 1733.2938,358.55432 1720.574,360 1710.666,360 H 1540 v 12 c 6.269,0.0173 12.6007,0.37548 18.666,2.13086 29.8535,8.64029 22.668,50.08675 22.668,73.86914 v 248 h 33.332 l 13.8633,-1.37109 L 1630.666,684 V 657.33398 578.66602 L 1629.334,540 l 32,-1.33398 h 56 21.332 l 9.2246,-2.08399 L 1748,516 H 1630.666 V 429.33398 L 1629.334,384 c 12.2966,-2.92749 26.0773,-1.33398 38.666,-1.33398 24.9274,0 55.9358,-5.10588 78.666,7.0996 11.9166,6.39894 19.3239,17.32821 22.7695,30.23438 1.4009,5.2474 0.5397,14.95157 3.9336,19.19531 2.9487,3.68701 9.5833,1.90194 13.2969,0.80469 -1.0249,-15.11214 0.1758,-30.19751 -1.2324,-45.33398 -0.8245,-8.86296 -1.9691,-18.24293 -8.5391,-24.89844 -7.674,-7.77385 -19.2781,-10.21643 -31.4394,-10.71485 z M 2377.334,360 v 12 c 5.7883,0.0479 11.7612,0.44434 17.332,2.16406 29.9586,9.24838 22.668,49.54387 22.668,73.83594 v 248 h 157.332 46.668 L 2648,694.66602 v -21.33204 h -133.334 -32 c -4.5459,-0.008 -10.3904,0.61593 -13.6758,-3.24609 -4.1557,-4.88513 -2.3242,-14.80668 -2.3242,-20.75391 v -54.66796 -164 c 0,-20.54444 3.2769,-49.04705 -14.6855,-63.47852 C 2443.1341,360.08007 2432.1091,360 2421.334,360 Z m 330.2773,6.59961 c -2.017,0.0266 -4.1121,0.27641 -6.2773,0.77344 -36.6827,8.42049 -19.9108,66.42276 16,57.01562 33.1775,-8.6911 20.5331,-58.18865 -9.7227,-57.78906 z m -1363.9629,0.01 c -2.0203,0.0192 -4.127,0.26507 -6.3144,0.76367 -36.7016,8.3658 -21.5217,65.85702 14.666,57.25 32.6666,-7.76954 21.9534,-58.30099 -8.3516,-58.01367 z m -245.4394,5.0371 c 43.6476,-1.55803 76.1942,28.44034 92.6426,68.35352 21.7423,52.75936 22.2591,120.39697 1.1484,173.33398 -14.0132,35.13937 -40.9772,64.15878 -80,68.95118 -46.8681,5.7559 -81.5106,-25.53923 -98.8652,-66.28516 -22.75084,-53.41488 -22.07851,-122.30965 -0.6016,-176 13.3362,-33.33936 39.6428,-62.78442 76.8008,-67.61328 3.007,-0.39078 5.9651,-0.63637 8.875,-0.74024 z m -620.87502,5.6875 v 108 c 8.06637,-2.5756 14.15804,-8.29597 19.59766,-14.66796 24.53227,-28.73723 16.09847,-77.92644 -19.59766,-93.33204 z M 424,378.66602 C 413.0269,381.26758 404.83577,390.61532 399.27148,400 382.67061,427.99886 391.33545,472.76904 424,485.33398 Z m 1486.7793,71.50586 c -5.363,-0.0187 -10.7489,0.33224 -16.1133,1.0625 -24.6617,3.35718 -47.7875,13.32983 -65.2812,31.4375 -45.5979,47.19848 -47.2758,137.07576 -2.3321,185.20898 27.6729,29.63676 67.62,37.2347 106.2813,31.73828 88.5012,-12.58187 112.1943,-131.28019 71.3808,-198.28516 -19.9801,-32.8021 -56.3945,-51.03109 -93.9355,-51.1621 z m 1155.5391,0.008 c -15.5546,-0.46139 -31.1499,2.17047 -44.9844,7.75781 -75.3893,30.44751 -89.0782,147.08618 -40.7149,206.0625 17.5644,21.41895 41.7348,32.89836 68.7149,36.76172 31.7536,4.54679 66.2548,-4.93563 89.332,-27.44727 5.456,-5.32218 22.4815,-19.06641 17.7188,-27.97461 -1.8711,-3.49976 -6.6267,-8.0398 -10.9317,-6.43945 -6.6061,2.45568 -12.2891,13.5022 -17.4551,18.3125 -10.862,10.11385 -24.1259,17.1696 -38.664,20.11523 -6.8694,1.39189 -13.0869,1.36332 -20,0.36719 -46.1214,-6.64579 -65.2181,-53.05273 -65.334,-95.02929 h 117.334 28 c 3.2279,-0.007 8.3379,0.7535 10.6289,-2.13672 2.3105,-2.91496 1.5609,-8.77112 1.9844,-12.30274 1.5928,-13.27852 0,-28.49926 -2.8301,-41.56054 -3.8187,-17.63428 -11.2731,-34.46786 -23.7031,-47.77344 -17.3613,-18.58414 -43.1715,-27.94392 -69.0957,-28.71289 z m -882.5118,0.56445 c -13.0168,0.32826 -26.6945,5.34823 -37.1406,12.40234 -4.8654,3.28556 -12.5822,14.11329 -18.5273,14.11329 -3.7635,0 -6.1091,-5.38997 -8.0371,-7.90625 -3.8504,-5.02506 -8.6278,-9.07349 -14.7676,-10.95508 -19.52,-5.98226 -43.7999,-2.39844 -64,-2.39844 0,3.29549 -0.8288,8.42252 1.3691,11.19531 3.4878,4.40022 15.9515,2.36474 21.2969,4.76367 8.7765,3.93888 14.0937,12.17562 15.873,21.375 4.8579,25.11678 2.793,51.85979 2.793,77.33204 V 696 h 48 V 561.33398 526.66602 c 0,-5.63957 -1.0133,-12.34115 2.1387,-17.33204 12.5941,-19.9414 41.27,-29.60448 63.1953,-22.6289 4.7679,1.51693 9.1897,3.50488 13.334,6.32617 2.7906,1.89958 5.8168,5.14218 9.332,5.56055 5.5691,0.66284 19.299,-11.80062 19.9707,-17.27735 0.6115,-4.98519 -4.9101,-10.1066 -8.0234,-13.29492 -11.1579,-11.42651 -25.6751,-15.81583 -41.2793,-17.12109 -1.8213,-0.15235 -3.6678,-0.20119 -5.5274,-0.1543 z M 1284,456 c 0,3.29549 -0.8269,8.42236 1.3711,11.19531 2.5468,3.21305 8.4078,1.97273 11.9629,2.26172 6.0833,0.49446 12.5679,2.72645 17.0488,6.99609 10.6005,10.10083 9.6172,27.521 9.6172,40.88086 V 594.66602 664 c 0,7.85238 -2.6973,21.79313 0.8047,28.91016 1.7663,3.58951 6.5065,3.06478 9.8613,3.08789 8.8875,0.0612 17.7803,0.0199 26.668,0.002 3.2087,-0.007 8.3476,0.7583 10.6152,-2.13281 2.831,-3.6097 0.2518,-11.04712 0.1,-15.20508 -0.463,-12.41032 -0.049,-24.90938 -0.049,-37.32813 V 520 c 0,-18.74276 2.5402,-40.12101 -12.125,-54.52734 C 1350.4528,456.21688 1337.7321,456 1325.334,456 Z m 1364,0 c 0,3.29574 -0.827,8.42219 1.3711,11.19531 2.0988,2.64786 6.3282,2.05818 9.2949,2.15625 5.1186,0.16919 9.9889,1.1871 14.666,3.33985 8.7088,4.00847 12.5801,11.56518 14.3184,20.64257 4.425,23.10816 1.6836,48.52857 1.6836,72 V 696 h 48 V 529.33398 c 0,-21.17431 4.587,-49.31689 -13.3867,-64.89648 C 2714.4409,456.19743 2702.5997,456 2690.666,456 Z m -737.5391,17.39062 c 25.1689,-0.10286 43.2498,22.0184 51.9336,43.94336 14.4024,36.36239 13.9094,83.8903 -1.0761,120 -8.4346,20.3243 -23.4983,38.79033 -46.6524,41.10547 -29.5028,2.94991 -50.6317,-20.6899 -59.541,-46.43945 -12.3988,-35.83476 -13.5253,-80.72534 1.4453,-116 9.1915,-21.65771 24.4289,-39.33415 48.7637,-42.28516 1.7402,-0.21103 3.449,-0.31736 5.1269,-0.32422 z m 1149.0801,0.75977 c 13.5948,-0.28957 27.3041,5.25664 35.4082,16.51758 C 3109.0166,510.21534 3112,536.65934 3112,560 h -108 c 4.9736,-26.79053 5.2969,-54.21769 26.7188,-74.52734 7.7429,-7.34109 18.2485,-11.09705 28.8222,-11.32227 z M 2573.334,800 v 98.66602 l 1.332,48 18.668,-1.33204 V 840 813.33398 l -1.3711,-11.19531 z m 220.7148,0.7832 c -2.6057,0.0681 -5.0515,0.41687 -6.959,1.35547 -4.6426,2.28458 -4.8124,17.43189 -0.9511,20.49024 4.3438,3.44043 15.2353,1.37109 20.5273,1.37109 v -22.66602 c -3.4861,0 -8.2742,-0.66427 -12.6172,-0.55078 z M 2620,801.33398 2621.3711,821.86133 2642.666,824 v -22.66602 z m -115.875,1.18946 c -6.2808,-0.0462 -12.5895,0.67148 -18.791,2.14648 -60.4793,14.38484 -64.9675,114.68091 -9.334,138.16211 16.8016,7.09139 39.0811,7.42073 56,0.5332 5.9741,-2.43197 17.5181,-7.79532 17.7188,-15.36718 0.114,-4.3068 -3.482,-8.60287 -5.7188,-11.99805 -5.8955,2.26774 -10.429,6.45842 -16,9.35352 -9.181,4.77108 -20.4684,6.53186 -30.666,4.69336 -44.8729,-8.09051 -53.5114,-81.43596 -16,-104.07422 12.9532,-7.81722 30.3645,-7.89625 44,-1.91407 6.6228,2.90551 12.0255,7.81413 18.666,10.60743 2.208,-3.78369 6.722,-9.77051 5.5781,-14.41993 -1.3377,-5.43734 -10.3443,-9.04036 -14.9121,-11.09375 -9.684,-4.35318 -20.0729,-6.55198 -30.541,-6.6289 z m -1222.3242,1.49609 c -0.9829,-0.0561 -2.0184,-0.0393 -3.1133,0.0586 -11.162,0.99781 -16.3094,24.29867 -20.0059,33.25586 -8.8151,21.36011 -17.6164,42.92578 -27.0898,64 -6.3867,14.20769 -15.6065,29.93474 -18.2578,45.33204 5.7669,-0.13452 15.7127,1.17203 20.0078,-3.42188 8.6899,-9.29476 6.1856,-31.82374 22.6523,-32.34766 14.0082,-0.44581 28.5521,1.10352 42.6719,1.10352 5.2034,0 13.5657,-1.55127 18.1465,1.37109 9.9641,6.35661 7.5635,23.97169 17.041,30.98438 4.8612,3.59684 13.7639,2.3099 19.4805,2.31055 -2.131,-11.95459 -9.4949,-23.54704 -14.293,-34.66602 -11.1803,-25.90885 -23.2205,-51.46566 -34.4746,-77.33398 -5.3818,-12.37046 -8.0225,-29.80545 -22.7656,-30.64649 z M 2052,814.66602 c -6.4264,0.5249 -17.6906,1.59993 -19.4492,9.27343 -1.3496,5.88916 3.6409,14.25895 -1.3555,19.25586 -6.1861,6.1866 -17.0732,-2.43603 -17.7773,10.13867 -0.068,1.21143 -10e-4,2.63079 0.3398,3.80274 2.0539,7.0634 11.4635,2.33577 16.211,5.44726 3.3016,2.16398 2.8079,9.90137 3.1386,13.41602 1.8278,19.42179 -6.6142,46.27539 7.5977,62.41992 7.2705,8.25911 17.1618,8.29949 27.2949,8.2461 3.2826,-0.0173 8.2879,0.57161 10.6289,-2.32227 2.8179,-3.48324 1.1535,-9.90283 0.037,-13.67773 -3.0786,0.5695 -6.18,1.29777 -9.334,1.03515 C 2047.8058,929.90877 2052,903.0363 2052,888 c 0,-6.88965 -1.9126,-17.20663 0.752,-23.64844 3.3577,-8.11784 17.8787,-0.72054 24.2089,-3.85547 4.4611,-2.20931 4.1269,-12.15885 -0.205,-14.35742 -6.1297,-3.111 -17.9577,-0.80469 -24.7559,-0.80469 z M 1282.666,828 l 18.9356,42.66602 9.0644,24 h -56 l 17.3203,-44 z m 689.9883,14.55469 c -7.697,-0.0254 -15.3906,1.48717 -21.9883,4.64843 -33.9305,16.25834 -38.4247,72.26164 -6.6601,93.31836 20.3853,13.51326 44.8794,6.98536 63.9941,-4.52148 l -5.334,-16 c -9.7115,5.52677 -18.7313,12.7487 -30.666,11.74805 -26.7043,-2.23917 -35.649,-36.27816 -24.127,-57.08008 7.2884,-13.15853 22.0494,-18.3003 36.127,-14.08203 4.6038,1.37947 14.7096,10.06877 18.9141,6.53125 9.2783,-7.8064 -0.9864,-16.69783 -8.2481,-19.98242 -6.6144,-2.9917 -14.3147,-4.55466 -22.0117,-4.58008 z m 351.3906,0.17187 c -14.7942,0.37422 -29.6581,7.58882 -38.0879,19.94532 -16.7502,24.55249 -10.7269,68.08602 18.043,80.86328 20.6488,9.17058 42.9926,3.50618 61.334,-7.53516 L 2360,921.33398 c -16.4497,6.22404 -31.9694,16.6307 -49.3281,5.37305 -6.765,-4.38729 -10.8772,-11.01017 -12.8321,-18.70703 -0.7755,-3.05379 -2.109,-7.21208 0.3497,-9.86133 C 2301.958,894.07812 2312.3388,896 2317.334,896 H 2368 c -0.01,-14.28206 -2.3398,-30.12516 -12.623,-40.93164 -8.3604,-8.78574 -19.8255,-12.63285 -31.3321,-12.3418 z m 397.2891,0.0781 c -5.3478,0.24341 -11.1196,1.53801 -16,3.73633 -6.9769,3.1425 -11.6768,8.58463 -17.334,13.45898 l -1.3711,-12.5293 -17.2949,-2.13672 1.332,101.33204 h 18.668 v -44 c 0,-9.05249 -0.4672,-19.7666 3.8926,-27.99805 8.1364,-15.36173 30.9227,-21.31372 41.8359,-5.31445 4.0661,5.96086 3.6031,13.10652 3.6035,19.98046 v 36 c 0,4.5328 -2.1507,16.9012 2.1387,19.84375 3.333,2.28654 12.2764,0.95508 16.5293,1.48829 2.7067,-9.15764 1.332,-19.82414 1.332,-29.33204 0,-24.82291 6.6049,-65.21622 -25.332,-73.01562 -3.9034,-0.95329 -7.9687,-1.69718 -12,-1.51367 z m 159.418,0.13476 c -17.0295,-0.62663 -34.4965,6.34537 -44.0215,21.0625 -17.538,27.09814 -8.5795,74.20621 25.9355,81.98047 8.5231,1.91975 16.7474,2.24089 25.334,0.79102 10.2542,-1.73144 18.2623,-6.14055 26.666,-12.10742 l -5.332,-13.33204 c -13.5459,3.48373 -23.4405,14.48266 -38.668,9.1875 -25.8913,-9.00342 -29.9209,-49.08284 -9.2129,-65.2832 9.4052,-7.35799 21.1202,-7.76928 31.8809,-3.26562 3.7842,1.5839 8.7757,6.79901 13.0488,6.13672 4.5912,-0.71169 6.9469,-8.43897 8.2832,-12.10938 -8.3301,-5.91488 -16.4765,-10.62663 -26.666,-12.32812 -2.3905,-0.39919 -4.8153,-0.64291 -7.248,-0.73243 z m -1465.4082,0.0879 c -13.9638,-0.55522 -27.543,3.94459 -37.9571,14.35938 -22.6505,22.65202 -18.0906,71.63468 11.9473,86.07617 20.2064,9.71476 40.6291,2.53906 58.666,-7.46289 l -5.334,-16 c -9.7912,5.45109 -18.7423,12.48658 -30.666,11.7168 -39.5443,-2.55297 -36.9939,-72.8086 2.666,-72.8086 11.1229,0 18.7256,7.02955 28,11.75782 1.3204,-3.87899 4.6796,-9.1499 4.0098,-13.3125 -1.094,-6.7998 -11.6261,-10.54346 -17.3418,-12.11719 -4.6369,-1.27672 -9.3359,-2.02391 -13.9902,-2.20899 z M 1864,843.06055 c -4.0552,0.0607 -8.2212,0.84917 -12,1.98633 -8.7466,2.63197 -14.1277,9.8776 -21.334,14.95312 l -1.3691,-12.5293 -17.2969,-2.13672 2.5566,57.32813 0.1094,44.00391 18.668,-1.33204 v -44 c 0,-8.92456 -0.9034,-18.42707 3.2363,-26.66601 7.7692,-15.46232 31.418,-22.23616 41.791,-5.28125 3.967,6.48405 2.6357,14.07284 3.1797,21.2793 1.3981,18.52286 -0.9211,37.68245 1.125,56 H 1900 c 3.0413,-10.28907 1.334,-22.64193 1.334,-33.33204 0,-20.92684 5.1278,-54.27733 -17.334,-66.07812 -4.7938,-2.51855 -10.6776,-3.36589 -16,-3.99805 -1.3086,-0.15539 -2.6483,-0.21751 -4,-0.19726 z m -234.0391,0.72851 c -2.96,0.0402 -5.9063,0.28817 -8.6269,0.91602 -9.7755,2.25602 -15.1444,9.56364 -22.668,15.29492 l -1.3691,-12.5293 -18.6309,-2.13672 1.3672,88.05274 -0.033,53.2793 20,1.33398 v -56 c 7.8757,6.16317 13.8185,12.40551 24,14.64648 5.4323,1.19564 10.5099,1.50156 16,0.53321 31.2813,-5.51725 42.6017,-40.35661 35.3613,-68.51367 -4.5102,-17.54021 -17.7521,-33.15512 -36.6953,-34.54493 -2.7725,-0.20341 -5.745,-0.37226 -8.7051,-0.33203 z M 2269.334,844 l -24,3.03906 -16,12.96094 -1.3711,-12.5293 -17.2969,-2.13672 1.334,100 18.666,1.33204 c 4.8115,-16.27784 1.3067,-37.70232 1.334,-54.66602 0.021,-13.00179 4.8751,-25.83016 18.666,-29.81641 5.8509,-1.69116 12.6355,-0.84961 18.668,-0.84961 z m -559.7344,0.95703 c -3.9134,-0.22452 -8.2343,0.37695 -10.9336,0.37695 v 49.33204 c 0,17.6984 -1.0823,41.59545 18.668,49.64843 4.8295,1.96916 10.2552,2.80745 15.4336,3.23828 5.3617,0.44605 11.5033,-0.57812 16.5664,-2.36328 7.3335,-2.58561 11.5174,-8.50545 17.332,-13.18945 l 1.334,14.66602 h 17.334 v -33.33204 -68 h -20 c 0.01,12.45769 1.332,24.82048 1.332,37.33204 0,12.30875 1.329,26.69702 -6.1972,37.32812 -9.4783,13.38745 -31.5967,16.90693 -39.7051,0.004 -2.7553,-5.74397 -2.0977,-12.48121 -2.0977,-18.66407 v -34.66796 c 0,-5.30339 1.0739,-12.03467 -0.5781,-17.13477 -1.0688,-3.29944 -4.5749,-4.3497 -8.4883,-4.57422 z m -242.9336,0.37695 v 49.33204 c 0,10.24593 -0.9354,20.7972 2.334,30.66796 6.8503,20.68221 32.1705,27.69897 50.998,18.48047 5.7124,-2.79688 8.8917,-7.5743 13.336,-11.81445 l 1.332,14.66602 18.668,-1.33204 -1.334,-38.66796 v -61.33204 h -18.666 V 888 c 0,9.95133 0.6367,20.16439 -4,29.33398 -7.2246,14.2876 -27.0511,20.12696 -38.1406,6.60743 -5.7814,-7.04842 -5.8454,-17.90593 -5.8594,-26.60743 v -52 z m 630.668,0 V 896 c 0,10.31917 -1.0342,20.85986 2.7578,30.66602 7.1932,18.60156 29.8822,25.94393 47.9082,18.40234 6.798,-2.84407 11.2358,-7.66374 16,-13.06836 l 1.334,14.66602 H 2184 V 845.33398 h -20 v 44 c 0,9.23601 0.7218,19.48479 -3.584,28 -7.1975,14.23389 -27.5746,19.97185 -38.5566,6.60743 C 2115.4952,916.19653 2116,905.4305 2116,896 v -50.66602 z m 525.332,0 v 100 h 18.668 v -100 z m 182.668,0 -18.6309,2.13672 -0.037,25.86328 v 72 h 18.668 z m -480.6426,12.3379 c 4.6504,-0.0411 9.4362,1.33401 13.9551,4.53124 4.3792,3.09857 15.2279,16.37916 8.5449,21.75977 -3.7799,3.04338 -10.8976,0.45036 -15.1914,0.15625 -11.3018,-0.77392 -23.5302,-0.85246 -34.666,1.21484 0.672,-14.66699 13.4063,-27.53878 27.3574,-27.6621 z m -695.7969,1.10156 c 35.7803,-0.74316 39.7604,68.58129 4.4395,72.98047 -40.7835,5.07951 -46.2238,-67.22437 -8,-72.68555 1.2201,-0.17432 2.4063,-0.27095 3.5605,-0.29492 z M 453.23828,1136.8574 c -0.0161,0.04 -0.0326,0.079 -0.0488,0.1192 0.0101,2e-4 0.0201,10e-4 0.0293,0 0.007,-0.04 0.0131,-0.079 0.0195,-0.1192 z"
       clip-path="url(#clipPath1)" />
  </g>
</svg>
