<svg xmlns="http://www.w3.org/2000/svg" width="3256" height="1240" viewBox="0 0 3256 1240"><path d="M452.469 54.69c-2.2-.032-4.574.293-7.135 1.029-22.443 6.45-24.263 38.472-22.441 57.615.872 9.166 2.147 17.918 5.113 26.666 1.95 5.75 5.723 11.285 6.484 17.334 2.114 16.808.176 35.055.176 52v253.332c0 25.202-1.384 50.843.059 76 .594 10.355 7.655 18.625 7.921 29.334 2.368 95.125.377 190.223 2.708 285.334 2.128 86.88 3.73 173.81 3.953 260.8.294.02.615.224.855.655a.7.7 0 0 1 .504.064v-.187H452v.367a.99.99 0 0 1 .75-.319c.206.01.41.09.584.243v-37.623c0-27.158 1.332-54.257 1.332-81.334 0-23.393-1.479-47.331.12-70.666 1.974-28.844.525-57.746 1.234-86.668 1.752-71.517 1.8-143.03 2.652-214.666.242-20.368-.547-42.388 1.469-62.666.66-6.645 4.91-11.876 5.168-18.668 2.991-78.59.025-157.378.025-236V212c0-16.32-1.081-33.06.12-49.334.616-8.37 5.337-14.876 7.84-22.666 3.52-10.949 5.335-23.177 5.372-34.666.054-16.747-4.93-50.338-26.197-50.645m-1.756 15.482c6.442-.1 9.967 10.282 11.3 15.162 3.962 14.493 2.534 30.968-1.183 45.332-1.242 4.802-3.24 13.608-8.951 14.998-7.66 1.865-11.104-11.14-12.34-16.33-3.39-14.233-4.202-31.202.16-45.334 1.447-4.686 4.238-12.414 9.688-13.664a6.4 6.4 0 0 1 1.326-.164m-28.047 160.494c-12.593 3.006-25.891 3.597-38.666 5.9-21.422 3.863-42.205 9.361-62.666 16.838C227.192 287.806 147.521 360.76 105.744 452c-26.407 57.673-39.302 123.243-34.959 186.666C77.45 735.976 123.43 830.459 196 895.773c34.864 31.379 75.288 55.492 118.666 72.827 37.67 15.053 79.28 24.734 120 24.734l-1.332-142.668c-7.598-1.355-14.003-5.453-19.996-10.225-34.946-27.823-25.783-90.029 18.662-103.107L430.666 616c-24.383.202-50.017 10.618-70.666 22.934-68.031 40.577-102.72 121.114-84.46 198.4 11.654 49.334 44.82 94.124 89.794 118.014 14.436 7.668 29.692 12.214 45.332 16.652v1.334c-23.569-5.627-47.425-8.138-70.666-15.662-52.032-16.846-98.751-45.944-138.666-83.125-69.246-64.504-109.167-157.925-113.281-251.881C84.216 535.052 119.197 440.963 177.56 376c50.663-56.392 113.862-97.69 187.773-116.168 13.624-3.406 27.488-5.652 41.332-7.94 4.107-.678 13.2.127 15.963-3.363 3.254-4.109 1.37-13.351.037-17.863M477.334 232v18.666c19.062 1.517 37.739 8.426 54.666 17.01 103.148 52.303 129.496 194.237 55.605 281.658-19.528 23.105-44.307 42.762-72.939 53.262-9.958 3.651-20.21 6.731-30.666 8.584-3.785.67-10.528-.158-12.53 3.91-3.644 7.406-.804 22.063-.804 30.244 0 20.874-1.332 41.721-1.332 62.666 0 7.403-2.307 19.49.805 26.3 2.541 5.563 13.173 8.89 17.861 12.802 9.863 8.229 17.323 19.113 20.682 31.564 7.763 28.78-9.273 66.401-40.682 72l-1.334 142.668c47.18 0 94.482-12.275 137.334-31.594 48.187-21.723 90.487-52.36 126.547-91.074 51.107-54.869 85.9-127.13 96.883-201.332 17.565-118.671-24.07-243.311-108.764-328-31.44-31.438-69.989-57.83-110.666-75.814-40.469-17.893-85.852-33.396-130.666-33.52m626.008 117.992c-5.57-.037-11.14.19-16.676.674-22.86 2.002-45.598 9.043-65.332 20.807-22.994 13.707-39.524 33.82-53.066 56.527-16.56 27.765-23.657 61.36-24.286 93.334-.824 41.917 7.021 85.277 32.229 120 13.617 18.757 31.176 35.396 51.789 46.238 10.818 5.69 24.728 7.76 34.666 14.631 11.195 7.74 20.145 19.182 30.668 27.846 24.412 20.097 52.626 36.582 82.666 46.597 19.793 6.6 40.413 11.354 61.334 11.354 5.404 0 16.032 1.988 20.527-1.572 3.345-2.65 2.139-9.351 2.139-13.094-49.057 0-92.083-32.787-117.334-73.334 131.592-30.168 151.241-220.98 66.549-307.947-27.84-28.587-66.88-41.802-105.873-42.06m1800.937 2.58c-31.292-.598-63.268 13.472-77.623 42.094-9.659 19.26-9.322 40.402-9.322 61.334H2780v24l25.334.002 9.861 2.137 2.139 15.195V696h48V480h68v-24h-68c0-22.576-1.13-45.359 11.289-65.334 17.988-28.931 54.935-13.579 71.377 8 4.395-2.737 12.529-6.808 14.106-12.12 1.113-3.75-2.02-7.687-4.026-10.544-5.748-8.192-13.954-14.525-23.414-17.938-9.6-3.463-19.956-5.292-30.387-5.492m-1158.824 6.48c-12.161-.498-24.881.948-34.789.948H1540v12c6.269.017 12.6.375 18.666 2.13 29.854 8.641 22.668 50.088 22.668 73.87v248h33.332l13.863-1.371 2.137-10.629V578.666L1629.334 540l32-1.334h77.332l9.225-2.084L1748 516h-117.334v-86.666L1629.334 384c12.297-2.927 26.077-1.334 38.666-1.334 24.927 0 55.936-5.106 78.666 7.1 11.917 6.399 19.324 17.328 22.77 30.234 1.4 5.247.54 14.952 3.933 19.195 2.949 3.687 9.583 1.902 13.297.805-1.025-15.112.176-30.198-1.232-45.334-.825-8.863-1.97-18.243-8.54-24.898-7.673-7.774-19.278-10.217-31.439-10.715m631.879.948v12c5.788.048 11.761.444 17.332 2.164 29.959 9.248 22.668 49.544 22.668 73.836v248h204l26.666-1.334v-21.332h-165.334c-4.546-.008-10.39.616-13.676-3.246-4.155-4.885-2.324-14.807-2.324-20.754V430.666c0-20.544 3.277-49.047-14.685-63.478-8.847-7.108-19.872-7.188-30.647-7.188Zm330.277 6.6a29.8 29.8 0 0 0-6.277.773c-36.683 8.42-19.91 66.423 16 57.016 33.178-8.691 20.533-58.189-9.723-57.79m-1363.963.01c-2.02.019-4.127.265-6.314.763-36.702 8.366-21.522 65.857 14.666 57.25 32.667-7.77 21.953-58.3-8.352-58.013m-245.439 5.037c43.648-1.558 76.194 28.44 92.643 68.353 21.742 52.76 22.259 120.397 1.148 173.334-14.013 35.14-40.977 64.159-80 68.951-46.868 5.756-81.51-25.539-98.865-66.285-22.751-53.415-22.079-122.31-.602-176 13.336-33.34 39.643-62.784 76.801-67.613a95 95 0 0 1 8.875-.74m-620.875 5.687v108c8.066-2.575 14.158-8.296 19.598-14.668 24.532-28.737 16.098-77.926-19.598-93.332M424 378.666c-10.973 2.602-19.164 11.95-24.729 21.334-16.6 27.999-7.936 72.769 24.729 85.334Zm1486.78 71.506a116.5 116.5 0 0 0-16.114 1.062c-24.662 3.358-47.787 13.33-65.281 31.438-45.598 47.198-47.276 137.076-2.332 185.209 27.673 29.637 67.62 37.235 106.281 31.738 88.501-12.582 112.194-131.28 71.38-198.285-19.98-32.802-56.394-51.031-93.935-51.162m1155.538.008c-15.554-.462-31.15 2.17-44.984 7.758-75.39 30.447-89.078 147.086-40.715 206.062 17.565 21.42 41.735 32.899 68.715 36.762 31.754 4.547 66.255-4.936 89.332-27.447 5.456-5.323 22.482-19.067 17.719-27.975-1.871-3.5-6.627-8.04-10.932-6.44-6.606 2.456-12.289 13.503-17.455 18.313-10.862 10.114-24.126 17.17-38.664 20.115-6.87 1.392-13.087 1.364-20 .368-46.121-6.646-65.218-53.053-65.334-95.03h145.334c3.228-.007 8.338.754 10.629-2.137 2.31-2.914 1.56-8.77 1.984-12.302 1.593-13.279 0-28.5-2.83-41.56-3.819-17.635-11.273-34.469-23.703-47.774-17.361-18.584-43.171-27.944-69.096-28.713m-882.511.564c-13.017.329-26.695 5.349-37.141 12.403-4.865 3.285-12.582 14.113-18.527 14.113-3.764 0-6.11-5.39-8.037-7.906-3.85-5.025-8.628-9.074-14.768-10.955-19.52-5.983-43.8-2.399-64-2.399 0 3.296-.829 8.423 1.37 11.195 3.487 4.4 15.95 2.365 21.296 4.764 8.776 3.939 14.094 12.176 15.873 21.375 4.858 25.117 2.793 51.86 2.793 77.332V696h48V526.666c0-5.64-1.013-12.341 2.139-17.332 12.594-19.941 41.27-29.605 63.195-22.629 4.768 1.517 9.19 3.505 13.334 6.326 2.79 1.9 5.817 5.142 9.332 5.56 5.57.664 19.299-11.8 19.97-17.277.612-4.985-4.91-10.106-8.023-13.294-11.158-11.427-25.675-15.816-41.279-17.122a51 51 0 0 0-5.527-.154zM1284 456c0 3.295-.827 8.422 1.371 11.195 2.547 3.213 8.408 1.973 11.963 2.262 6.083.494 12.568 2.726 17.049 6.996 10.6 10.101 9.617 27.521 9.617 40.881V664c0 7.852-2.697 21.793.805 28.91 1.766 3.59 6.506 3.065 9.861 3.088 8.888.061 17.78.02 26.668.002 3.209-.007 8.348.758 10.615-2.133 2.831-3.61.252-11.047.1-15.205-.463-12.41-.049-24.91-.049-37.328V520c0-18.743 2.54-40.121-12.125-54.527-9.422-9.256-22.143-9.473-34.541-9.473Zm1364 0c0 3.296-.827 8.422 1.371 11.195 2.099 2.648 6.328 2.058 9.295 2.157 5.119.169 9.989 1.187 14.666 3.34 8.709 4.008 12.58 11.565 14.318 20.642 4.425 23.108 1.684 48.529 1.684 72V696h48V529.334c0-21.174 4.587-49.317-13.387-64.896-9.506-8.24-21.347-8.438-33.281-8.438Zm-737.54 17.39c25.17-.102 43.25 22.019 51.935 43.944 14.402 36.362 13.909 83.89-1.077 120-8.434 20.324-23.498 38.79-46.652 41.105-29.503 2.95-50.632-20.69-59.541-46.439-12.399-35.835-13.525-80.725 1.445-116 9.192-21.658 24.43-39.334 48.764-42.285a44 44 0 0 1 5.127-.324m1149.081.76c13.595-.29 27.304 5.257 35.408 16.518C3109.017 510.215 3112 536.659 3112 560h-108c4.974-26.79 5.297-54.218 26.719-74.527 7.743-7.341 18.248-11.097 28.822-11.323M2573.334 800v98.666l1.332 48 18.668-1.332v-132l-1.371-11.195zm220.715.783c-2.606.068-5.052.417-6.96 1.356-4.642 2.284-4.812 17.432-.95 20.49 4.343 3.44 15.235 1.371 20.527 1.371v-22.666c-3.486 0-8.274-.664-12.617-.55m-174.049.551 1.371 20.527 21.295 2.139v-22.666zm-115.875 1.19a78.7 78.7 0 0 0-18.791 2.146c-60.48 14.385-64.967 114.68-9.334 138.162 16.802 7.091 39.081 7.42 56 .533 5.974-2.432 17.518-7.795 17.719-15.367.114-4.307-3.482-8.603-5.719-11.998-5.895 2.268-10.429 6.458-16 9.354-9.181 4.77-20.468 6.531-30.666 4.693-44.873-8.09-53.511-81.436-16-104.074 12.953-7.818 30.365-7.897 44-1.914 6.623 2.905 12.026 7.814 18.666 10.607 2.208-3.784 6.722-9.77 5.578-14.42-1.338-5.437-10.344-9.04-14.912-11.094-9.684-4.353-20.073-6.552-30.541-6.629m-1222.324 1.496a21 21 0 0 0-3.113.058c-11.163.998-16.31 24.299-20.006 33.256-8.816 21.36-17.617 42.926-27.09 64-6.387 14.208-15.607 29.935-18.258 45.332 5.767-.134 15.713 1.172 20.008-3.422 8.69-9.295 6.185-31.824 22.652-32.348 14.008-.445 28.552 1.104 42.672 1.104 5.203 0 13.566-1.551 18.147 1.371 9.964 6.357 7.563 23.972 17.04 30.984 4.862 3.597 13.764 2.31 19.481 2.311-2.131-11.955-9.495-23.547-14.293-34.666-11.18-25.909-23.22-51.466-34.475-77.334-5.381-12.37-8.022-29.805-22.765-30.646M2052 814.666c-6.426.525-17.69 1.6-19.45 9.273-1.349 5.89 3.642 14.26-1.355 19.256-6.186 6.187-17.073-2.436-17.777 10.139-.068 1.211-.001 2.63.34 3.803 2.054 7.063 11.463 2.335 16.21 5.447 3.302 2.164 2.809 9.901 3.14 13.416 1.827 19.422-6.615 46.275 7.597 62.42 7.27 8.259 17.162 8.3 27.295 8.246 3.283-.017 8.288.572 10.629-2.322 2.818-3.483 1.153-9.903.037-13.678-3.079.57-6.18 1.298-9.334 1.035C2047.806 929.91 2052 903.036 2052 888c0-6.89-1.913-17.207.752-23.648 3.358-8.118 17.879-.721 24.209-3.856 4.461-2.21 4.127-12.159-.205-14.357-6.13-3.111-17.958-.805-24.756-.805zM1282.666 828l18.936 42.666 9.064 24h-56l17.32-44zm689.988 14.555c-7.697-.026-15.39 1.487-21.988 4.648-33.93 16.258-38.425 72.262-6.66 93.318 20.385 13.514 44.88 6.986 63.994-4.521l-5.334-16c-9.711 5.527-18.731 12.749-30.666 11.748-26.704-2.24-35.649-36.278-24.127-57.08 7.288-13.159 22.05-18.3 36.127-14.082 4.604 1.38 14.71 10.069 18.914 6.531 9.278-7.806-.986-16.698-8.248-19.982-6.614-2.992-14.315-4.555-22.012-4.58m351.39.172c-14.793.374-29.657 7.588-38.087 19.945-16.75 24.552-10.727 68.086 18.043 80.863 20.649 9.17 42.993 3.506 61.334-7.535L2360 921.334c-16.45 6.224-31.97 16.63-49.328 5.373-6.765-4.387-10.877-11.01-12.832-18.707-.776-3.054-2.11-7.212.35-9.861 3.768-4.06 14.149-2.139 19.144-2.139H2368c-.01-14.282-2.34-30.125-12.623-40.932-8.36-8.785-19.825-12.632-31.332-12.341m397.29.078c-5.348.243-11.12 1.538-16 3.736-6.977 3.142-11.677 8.585-17.334 13.459l-1.371-12.53-17.295-2.136 1.332 101.332h18.668v-44c0-9.053-.467-19.767 3.893-27.998 8.136-15.362 30.922-21.314 41.836-5.315 4.066 5.961 3.603 13.107 3.603 19.981v36c0 4.533-2.15 16.901 2.139 19.844 3.333 2.286 12.276.955 16.529 1.488 2.707-9.158 1.332-19.824 1.332-29.332 0-24.823 6.605-65.216-25.332-73.016-3.903-.953-7.969-1.697-12-1.513m159.418.134c-17.03-.626-34.496 6.346-44.021 21.063-17.539 27.098-8.58 74.206 25.935 81.98 8.523 1.92 16.747 2.241 25.334.791 10.254-1.731 18.262-6.14 26.666-12.107l-5.332-13.332c-13.546 3.484-23.44 14.483-38.668 9.187-25.891-9.003-29.92-49.082-9.213-65.283 9.405-7.358 21.12-7.769 31.881-3.265 3.784 1.584 8.776 6.799 13.049 6.136 4.591-.711 6.947-8.439 8.283-12.109-8.33-5.915-16.476-10.627-26.666-12.328-2.39-.4-4.815-.643-7.248-.733m-1465.408.088c-13.964-.555-27.543 3.945-37.957 14.36-22.65 22.652-18.09 71.634 11.947 86.076 20.206 9.715 40.63 2.539 58.666-7.463l-5.334-16c-9.791 5.451-18.742 12.487-30.666 11.717-39.544-2.553-36.994-72.809 2.666-72.809 11.123 0 18.726 7.03 28 11.758 1.32-3.879 4.68-9.15 4.01-13.312-1.094-6.8-11.626-10.544-17.342-12.118-4.637-1.276-9.336-2.024-13.99-2.209m448.656.034c-4.055.06-8.221.849-12 1.986-8.747 2.632-14.128 9.877-21.334 14.953l-1.37-12.53-17.296-2.136 2.557 57.328.109 44.004 18.668-1.332v-44c0-8.925-.903-18.427 3.236-26.666 7.77-15.462 31.418-22.236 41.791-5.281 3.967 6.484 2.636 14.073 3.18 21.279 1.398 18.523-.921 37.682 1.125 56H1900c3.041-10.29 1.334-22.642 1.334-33.332 0-20.927 5.128-54.277-17.334-66.078-4.794-2.519-10.678-3.366-16-3.998a30 30 0 0 0-4-.197m-234.04.728c-2.96.04-5.905.288-8.626.916-9.775 2.256-15.144 9.564-22.668 15.295l-1.37-12.53-18.63-2.136 1.367 88.053-.033 53.279 20 1.334v-56c7.876 6.163 13.819 12.406 24 14.646 5.433 1.196 10.51 1.502 16 .534 31.282-5.518 42.602-40.357 35.362-68.514-4.51-17.54-17.753-33.155-36.696-34.545-2.772-.203-5.745-.372-8.705-.332zm639.374.211-24 3.04-16 12.96-1.371-12.53-17.297-2.136 1.334 100 18.666 1.332c4.812-16.278 1.307-37.702 1.334-54.666.021-13.002 4.875-25.83 18.666-29.816 5.85-1.692 12.636-.85 18.668-.85zm-559.734.957c-3.914-.224-8.235.377-10.934.377v49.332c0 17.698-1.082 41.595 18.668 49.648 4.83 1.97 10.255 2.808 15.434 3.239 5.361.446 11.503-.578 16.566-2.364 7.333-2.585 11.517-8.505 17.332-13.189l1.334 14.666h17.334V845.334h-20c.01 12.458 1.332 24.82 1.332 37.332 0 12.309 1.329 26.697-6.197 37.328-9.479 13.388-31.597 16.907-39.705.004-2.756-5.744-2.098-12.481-2.098-18.664v-34.668c0-5.303 1.074-12.035-.578-17.135-1.069-3.3-4.575-4.35-8.488-4.574m-242.934.377v49.332c0 10.246-.935 20.797 2.334 30.668 6.85 20.682 32.17 27.699 50.998 18.48 5.712-2.796 8.892-7.574 13.336-11.814l1.332 14.666 18.668-1.332-1.334-38.668v-61.332h-18.666V888c0 9.951.637 20.164-4 29.334-7.225 14.288-27.051 20.127-38.14 6.607-5.782-7.048-5.846-17.906-5.86-26.607v-52zm630.668 0V896c0 10.32-1.034 20.86 2.758 30.666 7.193 18.602 29.882 25.944 47.908 18.402 6.798-2.844 11.236-7.663 16-13.068l1.334 14.666H2184V845.334h-20v44c0 9.236.722 19.485-3.584 28-7.197 14.234-27.575 19.972-38.557 6.607-6.364-7.744-5.859-18.51-5.859-27.941v-50.666zm525.332 0v100h18.668v-100zm182.668 0-18.63 2.137-.038 25.863v72h18.668zm-480.643 12.338c4.65-.041 9.437 1.334 13.955 4.531 4.38 3.099 15.228 16.38 8.545 21.76-3.78 3.043-10.897.45-15.191.156-11.302-.774-23.53-.852-34.666 1.215.672-14.667 13.406-27.539 27.357-27.662m-695.797 1.101c35.78-.743 39.76 68.582 4.44 72.98-40.784 5.08-46.224-67.223-8-72.685a30 30 0 0 1 3.56-.295M453.238 1136.857l-.049.12h.03z" style="fill:#1d0808;stroke:none"/><path d="M1814.779 925.252c.01-18.849-.133-24.293-1.285-50.251-.71-16.012-1.223-29.18-1.14-29.264.135-.135 12.896 1.308 15.723 1.777l1.1.183.646 6.184c.355 3.402.761 6.185.902 6.185.352 0 3.318-2.366 7.75-6.182 2.043-1.76 4.511-3.776 5.484-4.48 4.469-3.237 10.3-5.251 17.244-5.956 4.045-.41 9.98.132 15.37 1.405 12.63 2.982 20.44 11.928 23.446 26.851 1.295 6.429 1.532 10.323 1.404 23.034-.148 14.74-.156 21.288-.04 33.68.082 8.96-.096 11.671-1.058 16.116l-.402 1.857h-17.125l-.282-2.211c-.155-1.216-.322-12.241-.372-24.5s-.26-26.826-.467-32.372c-.53-14.232-1.265-16.754-6.407-21.974-4.437-4.506-9.184-6.265-15.854-5.876-10.994.64-21.098 8.343-24.467 18.651-1.687 5.163-1.776 7.075-1.778 38.056v29.034l-8.757.605c-4.815.332-8.955.6-9.198.596-.349-.007-.44-4.473-.435-21.148zM1731.1 947.218c-9.643-1.163-15.64-3.26-20.52-7.172-5.285-4.237-8.876-11.282-10.46-20.518-1.155-6.732-1.386-14.137-1.39-44.64V845.66l2.175-.227c4.116-.43 10.328-.259 12.346.34 2.414.717 4.35 2.574 4.956 4.752.337 1.212.421 8.628.362 31.829-.066 26.212 0 30.603.475 32.902 1.621 7.812 7.5 14.025 14.93 15.775 3.217.759 8.564.503 11.988-.573 9.17-2.881 15.502-9.107 18.527-18.216 2.056-6.195 2.353-9.395 2.292-24.758-.03-7.589-.308-18.49-.619-24.223-.31-5.733-.565-12.062-.565-14.063v-3.638h19.459v100.83h-16.881l-.208-2.034a589 589 0 0 1-.646-7.253c-.241-2.87-.541-5.218-.667-5.218-.125 0-2.522 2.08-5.327 4.621-6.922 6.274-9.144 7.693-14.446 9.224-4.911 1.417-11.336 2.023-15.778 1.487zM1588.699 987.07c-4.573-.34-8.354-.635-8.403-.659-.049-.023-.09-12.659-.095-28.08 0-15.42-.314-47.057-.69-70.304-.376-23.246-.635-42.314-.576-42.373.137-.137 17.9 1.91 18.071 2.082.071.07.387 2.516.702 5.433.648 5.991.802 6.9 1.169 6.888.142-.005 2.726-2.162 5.742-4.795 7.708-6.727 11.174-8.91 16.221-10.218 5.648-1.464 17.51-1.299 23.94.332 15.811 4.011 27.794 18.671 31.526 38.57 1.031 5.499.949 18.356-.153 23.823-3.858 19.145-14.573 32.503-30.228 37.687-9.512 3.15-20.52 2.56-29.1-1.557-3.126-1.5-6.13-3.565-11.674-8.028-2.723-2.192-5.071-3.985-5.218-3.985s-.267 12.577-.267 27.95v27.949l-1.326-.05c-.73-.027-5.069-.326-9.641-.665m44.817-55.21c5.934-.812 10.1-2.9 14.436-7.231 3.158-3.155 5.115-6.218 7.013-10.976 3.533-8.857 3.981-21.415 1.123-31.475-1.156-4.07-4.62-11.04-6.89-13.87-4.973-6.195-11.991-9.635-19.694-9.651-9.046-.02-17.15 3.92-22.467 10.923-8.911 11.735-10.221 31.486-3.042 45.854 6.09 12.188 16.83 18.164 29.521 16.426M1495.165 946.903c-14.256-2.833-24.139-12.288-27.12-25.949-1.189-5.447-1.327-10.728-1.137-43.464l.185-31.93h17.886l.172 31.223c.114 20.536.308 32.009.567 33.521 1.276 7.447 3.167 11.672 6.874 15.356 4.212 4.187 8.611 5.99 14.558 5.967 11.962-.048 22.204-8.979 25.062-21.853 1.131-5.097 1.295-9.79 1.295-37.009v-27.204h18.397l.026 33.167c.02 23.693.196 37.925.62 49.82l.592 16.65-8.969.62c-4.933.34-9.066.522-9.184.404s-.501-3.34-.852-7.161c-.35-3.82-.716-7.025-.812-7.122s-1.956 1.7-4.131 3.992-5.044 4.93-6.373 5.863c-3.04 2.136-7.686 4.008-12.249 4.938-4.18.852-11.566.934-15.407.17zM1402.91 947.427c-14.574-2.14-26.11-10.517-32.964-23.937-4.82-9.438-6.936-19.38-6.493-30.521.566-14.26 5.39-26.388 13.975-35.135 8.279-8.436 18.183-13.094 30.66-14.421 12.283-1.307 29.081 2.95 35.5 8.995 1.72 1.62 2.887 4.114 2.887 6.17 0 1.732-.97 4.977-2.56 8.564-.474 1.07-.965 2.23-1.09 2.576-.216.596-.302.592-1.624-.083-.767-.391-3.265-1.84-5.55-3.221-10.914-6.59-17.213-8.468-24.91-7.421-13.28 1.805-22.63 11.426-26.28 27.044-.628 2.69-.753 4.347-.76 10.116-.01 6.309.072 7.216.93 10.613 2.936 11.63 9.444 19.771 18.55 23.206 7.138 2.692 14.62 2.542 22.243-.447 3.508-1.376 4.784-2.04 11.959-6.22 2.788-1.626 5.007-2.71 5.174-2.528.334.364 4.979 14.253 4.979 14.888 0 .548-8.638 4.902-13.798 6.954-5.39 2.143-11.788 3.956-16.362 4.635-3.914.581-11.101.667-14.466.173M1339.645 946.366c-4.783-.852-8.139-3.567-10.537-8.525-.784-1.622-2.335-5.814-3.446-9.316-2.529-7.97-4.156-11.196-6.957-13.79-3.328-3.08-4.055-3.216-16.4-3.075-6.099.07-15.665-.123-23.586-.477-7.329-.328-16.085-.53-19.458-.449-7.578.182-9.28.704-12.332 3.785-2.64 2.665-4.085 5.596-7.041 14.28-1.374 4.036-3.061 8.456-3.748 9.821-2.208 4.385-4.756 6.484-8.945 7.373-2.692.571-13.517.536-13.51-.044.012-1.013 1.164-5.327 2.527-9.463 1.965-5.965 4.332-11.501 9.684-22.646 5.302-11.042 10.236-22.053 16.328-36.438 9.786-23.107 17.147-41.223 19.41-47.762 4.222-12.209 7.084-18.075 10.613-21.755 2.778-2.896 4.27-3.531 8.3-3.536 5.549-.007 9.391 1.797 12.853 6.039 2.163 2.65 5.317 9.105 7.677 15.714 2.405 6.736 4.857 12.391 19.097 44.047 6.564 14.594 13.64 30.435 15.723 35.202 2.082 4.768 5.677 12.569 7.987 17.336s4.923 10.47 5.806 12.67c1.67 4.166 3.582 10.6 3.248 10.934-.359.359-11.351.42-13.293.075m-29.07-52.601c-.209-.535-2.277-5.988-4.596-12.118-3.727-9.853-22.765-53.766-23.313-53.773-.1-.001-2.597 5.131-5.55 11.407-4.969 10.562-7.778 17.407-21.344 52.007l-1.352 3.45h56.535zM1963.717 947.57c-8.56-1.356-14.628-3.75-20.98-8.28-17.713-12.631-24.67-38.668-16.699-62.492 5.097-15.232 16.061-26.82 29.682-31.373 9.434-3.153 20.352-3.48 30.552-.914 6.924 1.741 12.057 4.32 15.828 7.949 3.825 3.68 5.136 7.627 3.596 10.823-.842 1.747-3.274 4.125-4.492 4.393-1.739.382-5.13-.881-10.689-3.98-6.983-3.893-8.913-4.433-16.007-4.478-6.122-.04-8.41.422-13.267 2.674-12.185 5.651-18.98 18.647-18.285 34.968.488 11.479 4.389 20.667 11.66 27.47 5.743 5.37 12.783 7.855 21.186 7.476 6.377-.288 10.92-2.061 21.579-8.42l5.22-3.115 2.573 7.744c2.522 7.593 2.559 7.755 1.874 8.278-1.287.983-11.275 5.82-14.645 7.093-4.377 1.653-10.318 3.221-14.711 3.883-3.197.482-11.68.664-13.975.3M2056.345 946.018c-8.185-1.235-13.758-4.696-17.981-11.164-4.823-7.389-6.546-17.267-5.677-32.548 1.097-19.274.808-33.225-.77-37.199-.663-1.668-1.07-2.168-2.332-2.864-1.337-.737-2.189-.875-6.756-1.092-5.834-.277-7.054-.688-8.284-2.794-.87-1.489-1.159-5.117-.595-7.465.883-3.685 3.262-4.978 9.157-4.978 4.921 0 8.02-1.518 9.679-4.742.948-1.843.993-5.192.147-10.849-.642-4.291-.492-6.243.65-8.45.672-1.301 2.664-3.01 4.724-4.054 2.796-1.418 4.814-1.893 12.177-2.87l1.327-.177v30.848l3.98-.295c2.19-.162 7.005-.295 10.702-.295 7.469 0 9.504.402 11.246 2.22 2.298 2.4 2.9 7.405 1.27 10.572-1.582 3.073-4.194 3.753-11.35 2.955-5.457-.608-10.06-.577-11.602.079-3.417 1.452-4.745 4.922-4.707 12.3.141 27.642.378 38.185.923 41.04 1.917 10.04 6.426 15.575 13.997 17.18 3.509.744 6.902.634 11.57-.375.653-.141.807.143 1.395 2.574.98 4.053.91 7.641-.19 9.602-1.59 2.835-2.352 3.029-12.198 3.091-4.67.03-9.396-.083-10.502-.25M2127.73 947.438c-8.01-1.258-15.651-5.122-20.798-10.518-4.222-4.426-6.907-9.675-8.47-16.557-.795-3.5-.799-3.655-.92-39.158l-.12-35.644h18.394l.124 32.283c.12 31.59.14 32.356.888 35.644 1.153 5.063 3.138 8.79 6.416 12.041 4.347 4.313 8.448 6.003 14.567 6.003 11.903 0 22.133-8.378 25.057-20.52 1.227-5.092 1.449-11.035 1.449-38.792v-26.66h19.459v100.831h-9.2c-8.525 0-9.198-.045-9.196-.62 0-1.094-1.162-13.704-1.28-13.844-.062-.075-1.632 1.461-3.488 3.413-6.02 6.331-10.991 9.431-18.053 11.258-3.965 1.025-11.085 1.429-14.83.84M2219.597 945.755l-7.519-.546.013-1.62c.01-.891-.265-23.227-.603-49.635s-.535-48.094-.438-48.19c.277-.277 16.249 1.781 16.564 2.134.155.174.559 2.943.898 6.154.34 3.21.677 5.9.751 5.976.164.17-.522.702 8.609-6.69l7.573-6.131 10.647-1.337c5.856-.735 11.165-1.414 11.797-1.508l1.15-.172v16.871l-8.226.146c-7.738.136-8.393.2-11.056 1.081-9.794 3.242-15.692 11.046-17.488 23.142-.53 3.573-.47 10.918.19 23.275.725 13.573.525 25.459-.53 31.318-1.16 6.456-1.026 6.184-3.07 6.234-.959.024-5.127-.202-9.262-.502zM2316.447 947.091c-10.393-1.84-18.695-6.163-25.366-13.21-16.607-17.545-18.928-49.616-5.123-70.793 2.17-3.33 8.411-9.523 11.915-11.825 8.253-5.423 17.587-8.255 27.242-8.266 7.603-.01 13.43 1.366 19.989 4.715 9.191 4.694 15.749 12.688 19.3 23.527 1.986 6.067 3.342 14.838 3.342 21.626v3.005l-32.814-.097c-30.772-.091-32.907-.058-34.313.532-1.88.789-3.523 2.629-3.836 4.297-.826 4.406 2.753 14.787 6.882 19.962 4.433 5.556 11.121 9.555 18.089 10.817 7.865 1.423 14.77-.07 30.239-6.543 4.513-1.888 7.827-3.09 7.953-2.887.119.193 1.311 3.386 2.65 7.097 2.353 6.525 2.41 6.763 1.757 7.262-1.335 1.021-11.362 5.817-14.807 7.083-4.543 1.669-10.465 3.21-14.9 3.879-4.905.74-13.484.654-18.2-.18m-13.088-62.493c3.46-.483 6.88-.616 15.741-.613 10.088.004 11.88.093 16.452.82 7.992 1.27 11.073.77 13.03-2.115.721-1.064.811-1.56.706-3.873-.098-2.162-.355-3.145-1.39-5.307-1.57-3.284-5.006-7.883-7.65-10.24-2.413-2.15-6.816-4.389-10.18-5.176-3.58-.837-9.367-.524-12.868.696-7.37 2.57-13.537 8.093-17.044 15.27-1.568 3.21-2.814 7.628-2.814 9.982 0 1.457.06 1.559.798 1.373.44-.11 2.788-.478 5.219-.817M2496.703 947.744c-12.189-1.227-23.878-5.538-32.433-11.961-13.95-10.475-23.027-26.853-26.177-47.237-1.013-6.56-1.094-18.42-.168-24.765 3.306-22.653 13.565-40.53 29.25-50.973 17.94-11.943 44.793-13.39 67.028-3.612 10.934 4.808 15.357 8.425 15.384 12.583.012 1.846-1.313 5.288-3.435 8.922-1.08 1.849-2.025 3.432-2.1 3.519-.26.298-4.202-1.83-9.215-4.974-11.032-6.921-17.245-9.002-28.086-9.404-5.865-.218-9.332.11-14.232 1.345-21.195 5.344-34.925 26.024-34.907 52.574.01 13.37 3.808 26.496 10.684 36.923 2.646 4.012 8.926 10.443 12.487 12.786 4.835 3.182 10.032 5.367 15.92 6.694 1.376.31 4.49.479 8.845.48 5.759.003 7.25-.115 10.408-.822 6.95-1.556 11.121-3.418 19.004-8.487 2.698-1.735 5.774-3.592 6.834-4.127l1.928-.973.836 1.015c1.53 1.858 3.99 6.297 4.552 8.213.364 1.24.474 2.432.32 3.461-.34 2.264-2.723 5.547-5.684 7.83s-10.274 5.944-15.358 7.686c-9.086 3.115-21.108 4.369-31.685 3.304M2574.707 943.295c0-1.702-.24-10.817-.523-20.254-.555-18.413-.78-122.762-.266-122.77 1.122-.013 16.692 1.874 17.239 2.091.604.24.781.945 1.307 5.198.556 4.49.61 10.733.628 71.28l.02 66.359-8.757.605c-4.816.332-8.955.6-9.199.596-.319-.006-.444-.872-.449-3.105zM2622.83 895.445v-49.884h18.397v99.769h-18.397zM2630.402 822.629l-8.88-.904-.41-6.214c-.227-3.418-.515-8.005-.64-10.194l-.227-3.98h22.397v22.289l-1.68-.047c-.925-.026-5.677-.453-10.56-.95M2670.814 940.996c-.264-6.928-1.357-95.126-1.18-95.303.161-.161 16.497 1.844 16.703 2.051.081.08.425 2.73.764 5.889.34 3.158.73 5.922.865 6.142.156.251 1.82-1.04 4.46-3.457 8.895-8.15 13.213-10.578 22.036-12.39 9.404-1.933 20.57-.197 28.079 4.365 6.44 3.912 11.766 11.693 13.992 20.44 2.18 8.569 2.646 15.137 2.332 32.903-.138 7.784-.275 19.884-.306 26.889-.048 11.09-.14 13.072-.708 15.338l-.654 2.602-6.774-.139c-5.973-.122-6.97-.227-8.432-.891-3.122-1.418-4.07-5.244-3.47-14.014.47-6.893.454-48.808-.02-52.595-.498-3.964-1.483-6.761-3.395-9.64-4.246-6.39-11.242-9.824-19.052-9.351-4.15.251-6.718.945-10.614 2.868-7.043 3.477-12.056 9.308-14.312 16.645-1.8 5.853-1.872 7.192-2.045 38.12l-.162 28.923h-17.9zM2786.989 896.523v-48.808l1.15-.19c.995-.165 16.334-1.964 16.743-1.964.083 0 .15 22.448.15 49.884v49.885h-18.043zM2789.348 823.826c-.94-.253-2.135-.768-2.654-1.144-3.693-2.68-4.164-14.451-.769-19.22.774-1.085 2.913-1.962 5.723-2.343.909-.124 4.61-.108 8.226.035l6.573.26v22.457l-4.3.23c-6.338.342-10.868.244-12.8-.275M2869.068 946.92c-12.092-1.653-20.03-5.606-27.524-13.706-2.737-2.959-5.647-7.383-7.684-11.684-10.11-21.34-6.276-49.448 8.784-64.402 11.983-11.9 31.503-16.86 48.961-12.44 7.08 1.791 13.132 4.798 22.522 11.19.475.323-1.943 6.26-3.513 8.625-1.542 2.323-3.092 3.346-5.07 3.346-1.918 0-3.229-.573-7.206-3.149-3.897-2.524-6.344-3.65-10.264-4.723-2.451-.67-3.797-.795-8.569-.795-4.95 0-5.992.104-8.301.829-14.3 4.49-23.01 17.77-23.01 35.08 0 13.834 5.76 25.678 15.66 32.2 5.124 3.375 11.866 5.308 16.607 4.76 5.29-.61 8.14-1.58 17.441-5.936 5.42-2.539 11.014-4.741 11.3-4.45.073.076 1.273 2.99 2.664 6.475l2.53 6.338-.994.8c-2.14 1.719-10.224 6.323-13.66 7.78-9.093 3.853-20.36 5.272-30.674 3.862" style="fill:#c2181c;fill-opacity:1;stroke-width:.353791"/></svg>